<?xml version="1.0" encoding="UTF-8"?>
<svg version="1.1" xmlns="http://www.w3.org/2000/svg" width="397" height="447">
<path d="M0 0 C4.61077813 0.92215563 6.71373363 1.80270305 10.578125 4.2109375 C11.6494165 4.87407959 12.72070801 5.53722168 13.82446289 6.22045898 C14.96649417 6.93834419 16.10833646 7.65653012 17.25 8.375 C18.41693693 9.10212459 19.58417511 9.82876594 20.75170898 10.55493164 C46.77994997 26.77994997 46.77994997 26.77994997 49 29 C49.02405198 31.73768372 48.98426808 34.44949457 48.90380859 37.18481445 C48.86104474 38.96566007 48.81929453 40.74653024 48.77841187 42.52742004 C48.75589733 43.47754282 48.7333828 44.4276656 48.710186 45.40657997 C48.58310411 51.49163733 48.54025601 57.57792393 48.48885155 63.66401386 C48.4390152 69.01086454 48.35509962 74.35275768 48.19433594 79.69750977 C48.04050557 84.86773599 47.98108001 90.03160565 47.9840889 95.20403099 C47.96878886 97.16796784 47.92016642 99.13195806 47.83649826 101.09417152 C47.42835143 110.29401147 47.42835143 110.29401147 50 119 C54.56392038 123.93886793 60.51861464 126.87028277 66.50587845 129.75191307 C70.58619337 131.79374929 74.39536961 134.25426006 78.25 136.6875 C79.74830201 137.60304501 81.24809234 138.51616323 82.75 139.42578125 C83.46800781 139.86100098 84.18601562 140.2962207 84.92578125 140.74462891 C85.61027344 141.15890137 86.29476562 141.57317383 87 142 C87.62261719 142.37688965 88.24523437 142.7537793 88.88671875 143.14208984 C93.24795752 145.77799039 97.62147888 148.39292677 102 151 C102.88896973 151.52980469 103.77793945 152.05960938 104.69384766 152.60546875 C107.6484597 154.36469586 110.60517691 156.12033459 113.5625 157.875 C114.50319336 158.43493652 115.44388672 158.99487305 116.41308594 159.57177734 C117.30930664 160.1023877 118.20552734 160.63299805 119.12890625 161.1796875 C119.92369385 161.65132324 120.71848145 162.12295898 121.53735352 162.60888672 C124.31090241 164.17562426 127.14722583 165.58362327 130 167 C129.99555878 165.92116043 129.99111755 164.84232086 129.98654175 163.73078918 C129.94599749 153.56350369 129.91601645 143.3962346 129.89637566 133.2288866 C129.8859387 128.00175927 129.871781 122.7746972 129.84912109 117.54760742 C129.82738973 112.50313869 129.81543071 107.45873274 129.81024551 102.41422081 C129.8065503 100.48970234 129.79933451 98.56518731 129.78853989 96.64069557 C129.77402115 93.94503988 129.77202223 91.24964358 129.77294922 88.55395508 C129.76575867 87.75841721 129.75856812 86.96287933 129.75115967 86.14323425 C129.76663061 81.98529094 130.12489726 78.7383348 132 75 C135.26647808 76.24926325 138.30484225 77.63468142 141.34375 79.36328125 C142.16842773 79.8320166 142.99310547 80.30075195 143.84277344 80.78369141 C144.7196582 81.28819824 145.59654297 81.79270508 146.5 82.3125 C147.86560059 83.09633057 147.86560059 83.09633057 149.25878906 83.89599609 C156.14805914 87.87638458 162.97052483 91.96054903 169.75 96.125 C170.66072266 96.68098877 171.57144531 97.23697754 172.50976562 97.80981445 C173.76563477 98.58844849 173.76563477 98.58844849 175.046875 99.3828125 C175.78776367 99.84059082 176.52865234 100.29836914 177.29199219 100.77001953 C179 102 179 102 180 104 C180.17682667 106.84409548 180.29418483 109.66639478 180.36743164 112.51367188 C180.39327835 113.39522949 180.41912506 114.27678711 180.445755 115.18505859 C180.67159628 123.33267622 180.80556184 131.48209157 180.91112614 139.63207245 C180.98334669 145.10653634 181.08599791 150.57663411 181.26196289 156.04882812 C181.43140876 161.3424923 181.52143939 166.63216091 181.55697441 171.92835999 C181.58391003 173.94141537 181.63862662 175.95430678 181.72224617 177.96580505 C182.33064042 193.29076612 182.33064042 193.29076612 178.44532394 197.80722046 C174.64175725 200.96883551 170.45237382 203.12308154 165.94503593 205.10777283 C163.19812446 206.36783647 160.71266302 207.97286005 158.1875 209.625 C154.37569061 212 154.37569061 212 151 212 C151 212.66 151 213.32 151 214 C147.7875053 215.90472584 144.55290308 217.7682154 141.3125 219.625 C139.94448242 220.43710937 139.94448242 220.43710937 138.54882812 221.265625 C137.66259766 221.76835937 136.77636719 222.27109375 135.86328125 222.7890625 C134.64572144 223.49603271 134.64572144 223.49603271 133.40356445 224.21728516 C131 225 131 225 128.48022461 224.30126953 C126.09675645 223.05076404 123.75934449 221.77869132 121.453125 220.390625 C120.6075 219.88273438 119.761875 219.37484375 118.890625 218.8515625 C118.01921875 218.32304687 117.1478125 217.79453125 116.25 217.25 C115.3940625 216.73695313 114.538125 216.22390625 113.65625 215.6953125 C109.53578223 213.21054557 105.47210386 210.67358863 101.484375 207.98046875 C96.77034258 204.8056911 91.90770858 201.92578092 87 199.0625 C85.05686504 197.92129903 83.11417427 196.77934147 81.171875 195.63671875 C80.16447266 195.0442334 79.15707031 194.45174805 78.11914062 193.84130859 C37.99315127 170.15390943 37.99315127 170.15390943 25.078125 161.33203125 C21.66650085 159.14525712 18.0814004 157.28515161 14.5078125 155.37890625 C11.55114211 153.75319807 8.79604207 151.88570279 6 150 C4.02 149.01 2.04 148.02 0 147 C0 98.49 0 49.98 0 0 Z " fill="#141125" transform="translate(51,125)"/>
<path d="M0 0 C3.48717222 1.44070965 6.74030873 3.20135184 9.99609375 5.09375 C10.70241943 5.49787109 11.40874512 5.90199219 12.13647461 6.31835938 C17.57412456 9.44832971 22.92982373 12.70402175 28.25390625 16.0234375 C31.02598398 17.74012178 33.81681872 19.41876973 36.62158203 21.08129883 C43.564634 25.20016946 50.38628518 29.48874395 57.18359375 33.84375 C65.0943648 38.91077982 73.07673318 43.82605081 81.15356445 48.62329102 C87.76190788 52.55912812 94.25708792 56.65681262 100.74121094 60.79321289 C106.62788772 64.52984869 112.61313778 68.03056522 118.7109375 71.41015625 C121.12670705 72.81624932 123.30892485 74.29732574 125.49609375 76.03125 C124.09900457 80.22251753 121.1985697 81.13009919 117.49609375 83.09375 C116.03293692 83.89154923 114.57072811 84.69108911 113.109375 85.4921875 C112.34963379 85.90694336 111.58989258 86.32169922 110.80712891 86.74902344 C107.0549362 88.83084428 103.37229771 91.02707418 99.68359375 93.21875 C98.26601999 94.05145404 96.84806106 94.88350276 95.4296875 95.71484375 C92.99114962 97.14502121 90.57072872 98.5951274 88.15625 100.06640625 C87.19589844 100.63230469 86.23554688 101.19820313 85.24609375 101.78125 C84.4365625 102.27109375 83.62703125 102.7609375 82.79296875 103.265625 C80.49609375 104.03125 80.49609375 104.03125 78.0625 103.37109375 C67.40580222 97.80755138 57.27240599 91.42945449 47.10302734 85.03027344 C38.5729074 79.6736282 29.96180712 74.46266942 21.30932617 69.30639648 C13.99477283 64.94580914 6.75098907 60.49580096 -0.50390625 56.03125 C-0.83390625 87.38125 -1.16390625 118.73125 -1.50390625 151.03125 C3.11609375 148.39125 7.73609375 145.75125 12.49609375 143.03125 C13.48609375 143.03125 14.47609375 143.03125 15.49609375 143.03125 C15.49609375 155.24125 15.49609375 167.45125 15.49609375 180.03125 C14.83609375 180.36125 14.17609375 180.69125 13.49609375 181.03125 C11.51098633 180.0559082 11.51098633 180.0559082 9.078125 178.51953125 C8.17787598 177.95959473 7.27762695 177.3996582 6.35009766 176.82275391 C5.40827637 176.23155762 4.46645508 175.64036133 3.49609375 175.03125 C1.68989251 173.9374457 -0.11873692 172.84764175 -1.9296875 171.76171875 C-2.87779297 171.19090576 -3.82589844 170.62009277 -4.80273438 170.03198242 C-5.79724609 169.43361572 -6.79175781 168.83524902 -7.81640625 168.21875 C-9.39905273 167.26609253 -9.39905273 167.26609253 -11.01367188 166.29418945 C-17.16683334 162.60076952 -23.34136173 158.94856142 -29.546875 155.34375 C-30.21229813 154.95657303 -30.87772125 154.56939606 -31.56330872 154.17048645 C-34.82918577 152.27064289 -38.09810427 150.37641282 -41.37231445 148.4909668 C-42.56213769 147.80018438 -43.75184116 147.10919562 -44.94140625 146.41796875 C-45.99199219 145.81170654 -47.04257813 145.20544434 -48.125 144.58081055 C-50.50390625 143.03125 -50.50390625 143.03125 -51.50390625 141.03125 C-51.60228612 139.55568119 -51.63893603 138.07577397 -51.64434814 136.59693909 C-51.65005829 135.66455414 -51.65576843 134.73216919 -51.66165161 133.77153015 C-51.66276947 132.74550186 -51.66388733 131.71947357 -51.66503906 130.66235352 C-51.67000397 129.58423401 -51.67496887 128.5061145 -51.68008423 127.39532471 C-51.6947298 123.81692881 -51.70151128 120.23857723 -51.70703125 116.66015625 C-51.71278001 114.18155414 -51.71853777 111.70295205 -51.7243042 109.22434998 C-51.73482052 104.02318107 -51.74065929 98.82202766 -51.74414062 93.62084961 C-51.74791001 88.27117797 -51.76201259 82.92164372 -51.78515625 77.57202148 C-51.81262288 71.12472446 -51.82554501 64.67756137 -51.8274765 58.23020744 C-51.83051139 55.768146 -51.83856784 53.30608558 -51.85166168 50.84405708 C-51.86864474 47.4057258 -51.86686093 43.96789677 -51.86035156 40.52954102 C-51.86956635 39.50553696 -51.87878113 38.4815329 -51.88827515 37.42649841 C-51.88270599 36.49129364 -51.87713684 35.55608887 -51.87139893 34.59254456 C-51.87286549 33.7793554 -51.87433205 32.96616625 -51.87584305 32.128335 C-51.40939157 29.49834944 -50.56172799 28.68277934 -48.50390625 27.03125 C-46.60428554 25.8483373 -44.67075257 24.7193159 -42.71875 23.625 C-41.86514389 23.14262123 -41.86514389 23.14262123 -40.99429321 22.65049744 C-39.14574966 21.60638913 -37.2937122 20.5686666 -35.44140625 19.53125 C-32.89489987 18.09898561 -30.35074643 16.66263365 -27.80859375 15.22265625 C-27.17987869 14.86655777 -26.55116364 14.51045929 -25.90339661 14.14356995 C-19.77971027 10.65469687 -13.79165425 6.94743843 -7.92358398 3.04296875 C-3.23019907 0.0403145 -3.23019907 0.0403145 0 0 Z " fill="#161227" transform="translate(215.50390625,33.96875)"/>
<path d="M0 0 C0.99 0.495 0.99 0.495 2 1 C2.3039198 20.28855102 2.53303842 39.57661519 2.67355824 58.86706543 C2.74054453 67.82446407 2.83183246 76.78037371 2.98071289 85.73681641 C3.11044431 93.54501501 3.19419126 101.35213535 3.22315043 109.16138172 C3.24007656 113.29560174 3.27972434 117.42673777 3.37449074 121.55996704 C3.46306581 125.45489429 3.48989536 129.34548472 3.47039986 133.24132347 C3.4739628 134.66692937 3.49965408 136.09268715 3.54967117 137.51741982 C3.69833297 141.9723507 3.59027813 145.81333625 2 150 C-1.97811159 153.6303287 -6.10781888 155.7300876 -11 158 C-12.61992925 158.92710994 -14.23217898 159.86812558 -15.828125 160.8359375 C-17.30112253 161.68396275 -18.77508616 162.53031207 -20.25 163.375 C-21.88829913 164.31852736 -23.52631421 165.26254809 -25.1640625 166.20703125 C-25.97262695 166.67318848 -26.78119141 167.1393457 -27.61425781 167.61962891 C-31.29508161 169.74932372 -34.9612515 171.90359659 -38.625 174.0625 C-39.66479004 174.67520752 -39.66479004 174.67520752 -40.72558594 175.30029297 C-42.11956813 176.12206009 -43.51344873 176.94399959 -44.90722656 177.76611328 C-49.14367363 180.26389717 -53.3834998 182.75594469 -57.62329102 185.24804688 C-61.18000289 187.33912348 -64.73461472 189.43361732 -68.28515625 191.53515625 C-71.80530262 193.61773915 -75.33292682 195.68714159 -78.86523438 197.74902344 C-80.32497876 198.60443632 -81.7818909 199.46469586 -83.23632812 200.32910156 C-85.42177445 201.62688833 -87.61596092 202.90860148 -89.8125 204.1875 C-90.80842163 204.78606812 -90.80842163 204.78606812 -91.82446289 205.39672852 C-95.63181856 207.58851321 -96.54876443 208.11280889 -101 207 C-101 189.18 -101 171.36 -101 153 C-93.41 148.71 -85.82 144.42 -78 140 C-73.61729076 137.49058323 -69.23984968 134.97710394 -64.875 132.4375 C-63.87597656 131.86193359 -62.87695312 131.28636719 -61.84765625 130.69335938 C-60.88472656 130.13326172 -59.92179687 129.57316406 -58.9296875 128.99609375 C-58.09679199 128.51325928 -57.26389648 128.0304248 -56.40576172 127.53295898 C-55.61186035 127.02708252 -54.81795898 126.52120605 -54 126 C-53.13643387 125.4842894 -52.27286774 124.9685788 -51.38313293 124.4372406 C-48.58598144 121.57658139 -48.42109288 119.84815863 -48.40011597 115.9209137 C-48.42123444 115.11250534 -48.44235291 114.30409698 -48.46411133 113.47119141 C-48.46783501 112.18267021 -48.46783501 112.18267021 -48.47163391 110.86811829 C-48.48531212 108.02857698 -48.53395878 105.19071176 -48.58203125 102.3515625 C-48.59644124 100.37626771 -48.60834342 98.40095317 -48.61784363 96.42562866 C-48.64827664 91.22274586 -48.70695275 86.02058963 -48.77325439 80.8180542 C-48.87551339 72.49817971 -48.93925928 64.17800456 -48.99506187 55.85770798 C-49.01920091 52.95380193 -49.05785579 50.05035542 -49.0983429 47.14663696 C-49.11520165 45.3602943 -49.1316761 43.57394796 -49.14770508 41.78759766 C-49.16275085 40.98323776 -49.17779663 40.17887787 -49.19329834 39.35014343 C-49.22010885 34.85029047 -48.85102448 31.19351549 -47 27 C-44.71948242 25.13232422 -44.71948242 25.13232422 -41.85546875 23.5546875 C-40.79521484 22.95785156 -39.73496094 22.36101562 -38.64257812 21.74609375 C-37.50240234 21.12863281 -36.36222656 20.51117188 -35.1875 19.875 C-34.01531454 19.22438555 -32.84409734 18.57202371 -31.67382812 17.91796875 C-29.28856546 16.58691631 -26.89856378 15.26497595 -24.50537109 13.94824219 C-21.19957887 12.12143182 -17.93402159 10.23083321 -14.67578125 8.3203125 C-13.71454346 7.75844238 -12.75330566 7.19657227 -11.76293945 6.61767578 C-9.9479027 5.55498836 -8.13515904 4.48837281 -6.32495117 3.41748047 C-5.51646729 2.94971191 -4.7079834 2.48194336 -3.875 2 C-2.81925781 1.38125 -2.81925781 1.38125 -1.7421875 0.75 C-0.87980469 0.37875 -0.87980469 0.37875 0 0 Z " fill="#6926D5" transform="translate(343,121)"/>
<path d="M0 0 C4.73858015 0.41550983 8.471899 2.72119955 12.5 5.0625 C13.20632568 5.46662109 13.91265137 5.87074219 14.64038086 6.28710938 C20.07803081 9.41707971 25.43372998 12.67277175 30.7578125 15.9921875 C33.52989023 17.70887178 36.32072497 19.38751973 39.12548828 21.05004883 C46.06854025 25.16891946 52.89019143 29.45749395 59.6875 33.8125 C67.59827105 38.87952982 75.58063943 43.79480081 83.6574707 48.59204102 C90.26581413 52.52787812 96.76099417 56.62556262 103.24511719 60.76196289 C109.13179397 64.49859869 115.11704403 67.99931522 121.21484375 71.37890625 C123.6306133 72.78499932 125.8128311 74.26607574 128 76 C126.60291082 80.19126753 123.70247595 81.09884919 120 83.0625 C118.53684317 83.86029923 117.07463436 84.65983911 115.61328125 85.4609375 C114.85354004 85.87569336 114.09379883 86.29044922 113.31103516 86.71777344 C109.55884245 88.79959428 105.87620396 90.99582418 102.1875 93.1875 C100.76992624 94.02020404 99.35196731 94.85225276 97.93359375 95.68359375 C95.49505587 97.11377121 93.07463497 98.5638774 90.66015625 100.03515625 C89.69980469 100.60105469 88.73945313 101.16695313 87.75 101.75 C86.94046875 102.23984375 86.1309375 102.7296875 85.296875 103.234375 C83 104 83 104 80.56640625 103.33984375 C69.90970847 97.77630138 59.77631224 91.39820449 49.60693359 84.99902344 C41.07681365 79.6423782 32.46571337 74.43141942 23.81323242 69.27514648 C16.49867908 64.91455914 9.25489532 60.46455096 2 56 C1.67 87.35 1.34 118.7 1 151 C5.62 148.36 10.24 145.72 15 143 C15.99 143 16.98 143 18 143 C18 155.21 18 167.42 18 180 C17.67 180 17.34 180 17 180 C17 168.45 17 156.9 17 145 C16.01 145.99 15.02 146.98 14 148 C14 148.66 14 149.32 14 150 C12.02 150.99 12.02 150.99 10 152 C10 153.65 10 155.3 10 157 C7 157 7 157 4 155 C1.72461677 154.33386665 1.72461677 154.33386665 -0.6875 153.875 C-1.89986328 153.62363281 -1.89986328 153.62363281 -3.13671875 153.3671875 C-3.75160156 153.24601563 -4.36648437 153.12484375 -5 153 C-4.01 150.69 -3.02 148.38 -2 146 C-1.67 146 -1.34 146 -1 146 C-0.67 115.64 -0.34 85.28 0 54 C0.99 53.505 0.99 53.505 2 53 C1.67 52.34 1.34 51.68 1 51 C0.91010458 49.46301766 0.88242985 47.92217205 0.88647461 46.38256836 C0.88655014 45.42495102 0.88662567 44.46733368 0.88670349 43.48069763 C0.89186478 42.44421585 0.89702606 41.40773407 0.90234375 40.33984375 C0.9037587 39.27963516 0.90517365 38.21942657 0.90663147 37.12709045 C0.91224153 33.73053194 0.92479325 30.33403867 0.9375 26.9375 C0.94251392 24.64257908 0.94707702 22.34765712 0.95117188 20.05273438 C0.96103224 15.01149136 0.97526491 9.9702821 0.99327087 4.92906189 C0.99667667 3.95271129 1 2.97635654 1 2 C0.34 1.67 -0.32 1.34 -1 1 C-0.67 0.67 -0.34 0.34 0 0 Z " fill="#6A24D6" transform="translate(213,34)"/>
<path d="M0 0 C0 14.85 0 29.7 0 45 C-3.77060877 45 -5.34436249 43.81343485 -8.5625 41.875 C-9.63757813 41.23175781 -10.71265625 40.58851563 -11.8203125 39.92578125 C-12.86960937 39.29027344 -13.91890625 38.65476563 -15 38 C-15.84304687 37.49855469 -16.68609375 36.99710938 -17.5546875 36.48046875 C-19.15185554 35.53002285 -20.74429095 34.57158152 -22.33203125 33.60546875 C-24.3797792 32.37322218 -26.43737526 31.17417846 -28.51171875 29.98828125 C-29.71630828 29.28413198 -30.92073684 28.57970728 -32.125 27.875 C-33.79949219 26.91207031 -33.79949219 26.91207031 -35.5078125 25.9296875 C-36.33023438 25.29289062 -37.15265625 24.65609375 -38 24 C-38 22.68 -38 21.36 -38 20 C-35.53874967 18.24416434 -33.2046278 16.8095023 -30.5625 15.375 C-29.00737861 14.50077138 -27.4527043 13.62574707 -25.8984375 12.75 C-25.09245117 12.30140625 -24.28646484 11.8528125 -23.45605469 11.390625 C-21.01858647 10.01052371 -18.61986872 8.58016182 -16.2265625 7.125 C-15.08465454 6.43398193 -15.08465454 6.43398193 -13.91967773 5.72900391 C-12.45510477 4.84061698 -10.99355705 3.9472194 -9.53540039 3.04833984 C-6.00254333 0.93177956 -4.21284058 0 0 0 Z " fill="#1C192B" transform="translate(100,95)"/>
<path d="M0 0 C0 0.66 0 1.32 0 2 C-3.75960806 5.75960806 -6.75900345 6.58894145 -12 7 C-12 7.66 -12 8.32 -12 9 C-12.99 9 -13.98 9 -15 9 C-15.33 10.98 -15.66 12.96 -16 15 C-16.99 14.67 -17.98 14.34 -19 14 C-19.309375 14.9590625 -19.309375 14.9590625 -19.625 15.9375 C-21 18 -21 18 -24 18.625 C-24.99 18.74875 -25.98 18.8725 -27 19 C-27.66 19.66 -28.32 20.32 -29 21 C-31.3828125 21.6328125 -31.3828125 21.6328125 -34.125 22.125 C-35.03507813 22.29257812 -35.94515625 22.46015625 -36.8828125 22.6328125 C-37.58148438 22.75398438 -38.28015625 22.87515625 -39 23 C-39 24.32 -39 25.64 -39 27 C-39.66 27 -40.32 27 -41 27 C-41 27.99 -41 28.98 -41 30 C-41.99 30.66 -42.98 31.32 -44 32 C-44.43356944 34.55003962 -44.43356944 34.55003962 -44.328125 37.5234375 C-44.32296875 38.626875 -44.3178125 39.7303125 -44.3125 40.8671875 C-44.291875 42.02476562 -44.27125 43.18234375 -44.25 44.375 C-44.24484375 45.52484375 -44.2396875 46.6746875 -44.234375 47.859375 C-44.18892598 54.50251288 -44.18892598 54.50251288 -43 61 C-42.9063489 63.31097854 -42.87006324 65.62462992 -42.875 67.9375 C-42.87242187 69.14277344 -42.86984375 70.34804688 -42.8671875 71.58984375 C-43.01399001 75.35921409 -43.30468617 78.60937234 -45 82 C-46.32 81.67 -47.64 81.34 -49 81 C-49 63.18 -49 45.36 -49 27 C-41.41 22.71 -33.82 18.42 -26 14 C-20.51538282 10.80039955 -15.04129997 7.58733699 -9.58398438 4.34179688 C-8.61138672 3.76880859 -7.63878906 3.19582031 -6.63671875 2.60546875 C-5.78811279 2.10168701 -4.93950684 1.59790527 -4.06518555 1.07885742 C-2 0 -2 0 0 0 Z " fill="#6427C0" transform="translate(291,247)"/>
<path d="M0 0 C1.32 0.33 2.64 0.66 4 1 C3.99666908 2.66250542 3.99666908 2.66250542 3.99327087 4.3585968 C3.97302025 14.79140767 3.95801857 25.22421455 3.94818783 35.6570406 C3.9429639 41.02096181 3.9358751 46.38486719 3.92456055 51.7487793 C3.91371432 56.92291101 3.90771946 62.09702746 3.90512276 67.27116966 C3.90327165 69.24757312 3.89965703 71.22397572 3.89426994 73.2003727 C3.88703654 75.9634343 3.88601004 78.72643244 3.88647461 81.48950195 C3.88287933 82.31093185 3.87928406 83.13236176 3.87557983 83.97868347 C3.88154735 87.24744175 3.95879734 89.87639203 5 93 C4.34 93 3.68 93 3 93 C3.33 93.99 3.66 94.98 4 96 C3.67 96.66 3.34 97.32 3 98 C4.98 97.505 4.98 97.505 7 97 C6.67 97.99 6.34 98.98 6 100 C4.07421875 100.73046875 4.07421875 100.73046875 1.6875 101.1875 C0.90761719 101.34605469 0.12773437 101.50460938 -0.67578125 101.66796875 C-3 102 -3 102 -7 102 C-7 102.66 -7 103.32 -7 104 C-5.515 103.505 -5.515 103.505 -4 103 C-4 103.66 -4 104.32 -4 105 C-7 106 -7 106 -10 105 C-11.32 105 -12.64 105 -14 105 C-14.33 106.32 -14.66 107.64 -15 109 C-16.65 109 -18.3 109 -20 109 C-20 108.01 -20 107.02 -20 106 C-19.01 106 -18.02 106 -17 106 C-17 105.34 -17 104.68 -17 104 C-13.91190305 102.23537317 -12.76687864 102 -9 102 C-8.34 101.01 -7.68 100.02 -7 99 C-6.34 99 -5.68 99 -5 99 C-5 98.34 -5 97.68 -5 97 C-3.02 96.01 -3.02 96.01 -1 95 C-0.67 63.65 -0.34 32.3 0 0 Z " fill="#5C28B3" transform="translate(296,150)"/>
<path d="M0 0 C4.95 0.99 4.95 0.99 10 2 C5.35072071 6.07300307 0.11174141 8.92575044 -5.25 11.9375 C-6.15363281 12.44990234 -7.05726563 12.96230469 -7.98828125 13.49023438 C-9.784307 14.5071209 -11.58440362 15.51685397 -13.38867188 16.51904297 C-15.1140876 17.49757437 -16.81966074 18.51204801 -18.50195312 19.56298828 C-24.31789647 23.11784512 -24.31789647 23.11784512 -27.66796875 22.5390625 C-28.43753906 22.03117187 -29.20710938 21.52328125 -30 21 C-31.02738281 20.43023437 -32.05476563 19.86046875 -33.11328125 19.2734375 C-34.16902344 18.64695313 -35.22476562 18.02046875 -36.3125 17.375 C-37.38113281 16.74335938 -38.44976562 16.11171875 -39.55078125 15.4609375 C-40.35902344 14.97882813 -41.16726563 14.49671875 -42 14 C-37.51780102 12.73554808 -34.40899325 13.62618546 -29.9375 14.8125 C-21.4661773 15.21589632 -12.57547756 11.29641206 -6 6 C-5.67 5.34 -5.34 4.68 -5 4 C-4.01 4 -3.02 4 -2 4 C-1.34 2.68 -0.68 1.36 0 0 Z " fill="#602AB3" transform="translate(321,115)"/>
<path d="M0 0 C4.72463088 0.46319911 8.17057052 1.09891706 12 4 C12 4.66 12 5.32 12 6 C12.66 6 13.32 6 14 6 C14.33 6.66 14.66 7.32 15 8 C16.31774196 8.39044206 17.65667272 8.70955086 19 9 C21.00382009 9.65509503 23.00458132 10.31974363 25 11 C25 11.66 25 12.32 25 13 C29.62006828 15.07431637 34.09395905 16.68588189 39 18 C42.35580031 18.95081009 45.69113645 19.89704548 49 21 C49 21.66 49 22.32 49 23 C48.01 23.495 48.01 23.495 47 24 C47.495 25.485 47.495 25.485 48 27 C47.67 27.66 47.34 28.32 47 29 C47.66 29 48.32 29 49 29 C49.495 30.485 49.495 30.485 50 32 C46.21763411 30.60584364 42.94547307 28.85778011 39.52734375 26.7265625 C38.47144043 26.07171875 37.41553711 25.416875 36.32763672 24.7421875 C35.2088916 24.04351562 34.09014648 23.34484375 32.9375 22.625 C30.60671892 21.17766743 28.2741012 19.73330789 25.94140625 18.2890625 C25.3580249 17.92742004 24.77464355 17.56577759 24.17358398 17.19317627 C18.60436318 13.74485326 12.99683362 10.36182858 7.375 7 C6.09677368 6.23550537 6.09677368 6.23550537 4.79272461 5.45556641 C2.86256749 4.30244354 0.93175736 3.15043938 -1 2 C-0.67 1.34 -0.34 0.68 0 0 Z " fill="#6823D1" transform="translate(229,96)"/>
<path d="M0 0 C6.14318104 3.25009979 12.18709705 6.63972851 18.125 10.25 C19.22070312 10.91515625 20.31640625 11.5803125 21.4453125 12.265625 C24 14 24 14 25 16 C25.09337788 18.89882564 25.12574273 21.77346574 25.11352539 24.67236328 C25.11367142 25.56998383 25.11381744 26.46760437 25.1139679 27.39242554 C25.11326953 30.36841218 25.10548067 33.34433675 25.09765625 36.3203125 C25.0957918 38.38011643 25.09436802 40.43992081 25.09336853 42.49972534 C25.08954548 47.92817402 25.07971699 53.35659605 25.06866455 58.78503418 C25.05844588 64.32152954 25.05386993 69.85802919 25.04882812 75.39453125 C25.03809455 86.26303256 25.02102065 97.13151406 25 108 C24.67 108 24.34 108 24 108 C23.67 78.96 23.34 49.92 23 20 C22.34 20.33 21.68 20.66 21 21 C20.01 20.01 19.02 19.02 18 18 C18.33 17.34 18.66 16.68 19 16 C18.443125 16.226875 17.88625 16.45375 17.3125 16.6875 C15 17 15 17 12.25 15.75 C11.5075 15.1725 10.765 14.595 10 14 C10 13.01 10 12.02 10 11 C8.906875 10.87625 7.81375 10.7525 6.6875 10.625 C3 10 3 10 0 8 C0.33 7.01 0.66 6.02 1 5 C1 3.27917076 0.4277972 1.65771414 0 0 Z " fill="#6A6970" transform="translate(206,213)"/>
<path d="M0 0 C0.66 0.33 1.32 0.66 2 1 C2 50.17 2 99.34 2 150 C1.67 150 1.34 150 1 150 C1 101.16 1 52.32 1 2 C-0.32 3.65 -1.64 5.3 -3 7 C-6.5625 8.6875 -6.5625 8.6875 -10 10 C-10.99 10.66 -11.98 11.32 -13 12 C-14.32 11.34 -15.64 10.68 -17 10 C-14.54220129 8.51993873 -12.08378912 7.04091426 -9.625 5.5625 C-8.92632812 5.14162109 -8.22765625 4.72074219 -7.5078125 4.28710938 C-6.8375 3.88427734 -6.1671875 3.48144531 -5.4765625 3.06640625 C-4.85861816 2.69459229 -4.24067383 2.32277832 -3.60400391 1.93969727 C-2.42685882 1.250073 -1.22024659 0.6101233 0 0 Z " fill="#B491DB" transform="translate(343,121)"/>
<path d="M0 0 C2.875 -0.125 2.875 -0.125 6 0 C6.66 0.66 7.32 1.32 8 2 C8.33 1.34 8.66 0.68 9 0 C9.639375 0.185625 10.27875 0.37125 10.9375 0.5625 C11.9584375 0.7790625 11.9584375 0.7790625 13 1 C13.33 0.67 13.66 0.34 14 0 C16.375 -0.3125 16.375 -0.3125 19 0 C20.97610386 2.04424538 22 3.1176825 22 6 C21.34 6 20.68 6 20 6 C20 6.66 20 7.32 20 8 C20.99 7.67 21.98 7.34 23 7 C23.99 6.67 24.98 6.34 26 6 C26.99 6.66 27.98 7.32 29 8 C26.74259377 5.66475218 24.7194239 3.81294927 22 2 C22 1.34 22 0.68 22 0 C22.99 0 23.98 0 25 0 C25 0.66 25 1.32 25 2 C25.556875 2.12375 26.11375 2.2475 26.6875 2.375 C29.22114364 3.05976855 31.57921032 3.99133763 34 5 C34 5.99 34 6.98 34 8 C32.28428776 9.06368149 30.55176399 10.10028172 28.8125 11.125 C27.36810547 11.99511719 27.36810547 11.99511719 25.89453125 12.8828125 C23 14 23 14 20.59570312 13.23022461 C18.1585332 12.07513627 15.87578459 10.83745975 13.57421875 9.43359375 C12.77822266 8.94826172 11.98222656 8.46292969 11.16210938 7.96289062 C10.34548828 7.45951172 9.52886719 6.95613281 8.6875 6.4375 C7.85154297 5.93025391 7.01558594 5.42300781 6.15429688 4.90039062 C1.57573356 2.09345099 1.57573356 2.09345099 0 1 C0 0.67 0 0.34 0 0 Z " fill="#181726" transform="translate(159,336)"/>
<path d="M0 0 C2.00720923 0.28674418 4.0085944 0.61866701 6 1 C2.53413645 3.89662196 -0.97027917 6.2642398 -4.89453125 8.49609375 C-6.01537109 9.13740234 -7.13621094 9.77871094 -8.29101562 10.43945312 C-9.46470008 11.1057219 -10.63852914 11.77173601 -11.8125 12.4375 C-14.11195495 13.74647973 -16.4096403 15.058487 -18.70703125 16.37109375 C-19.79064941 16.98839355 -20.87426758 17.60569336 -21.99072266 18.24169922 C-24.61228276 19.77345939 -27.15851963 21.37443736 -29.69921875 23.03515625 C-31.33310547 24.00775391 -31.33310547 24.00775391 -33 25 C-33.66 24.67 -34.32 24.34 -35 24 C-32.3991542 21.12049214 -30.78271103 19.78262987 -27 19 C-26.67 18.34 -26.34 17.68 -26 17 C-25.34 17 -24.68 17 -24 17 C-24.33 16.34 -24.66 15.68 -25 15 C-25.51949219 15.28875 -26.03898437 15.5775 -26.57421875 15.875 C-33.50087873 19.56239016 -33.50087873 19.56239016 -38 19 C-34.81576196 15.20340849 -32.78193607 14.75010762 -28 14 C-26.72629852 13.33522887 -25.47588538 12.62429377 -24.25 11.875 C-23.1775 11.25625 -22.105 10.6375 -21 10 C-20.34 10.33 -19.68 10.66 -19 11 C-19 11.66 -19 12.32 -19 13 C-18.67 12.34 -18.34 11.68 -18 11 C-14.9375 10.375 -14.9375 10.375 -12 10 C-12.33 9.67 -12.66 9.34 -13 9 C-14.67542976 9.28604898 -16.34385343 9.61781233 -18 10 C-17.67 9.01 -17.34 8.02 -17 7 C-14.4375 5.8125 -14.4375 5.8125 -12 5 C-12 4.01 -12 3.02 -12 2 C-8.26269966 1.30468831 -4.79200032 1 -1 1 C-0.67 0.67 -0.34 0.34 0 0 Z " fill="#8D5FD3" transform="translate(338,270)"/>
<path d="M0 0 C-0.33 0.99 -0.66 1.98 -1 3 C-1.08705429 4.58033192 -1.11767952 6.16410378 -1.11352539 7.74682617 C-1.11344986 8.70759567 -1.11337433 9.66836517 -1.11329651 10.6582489 C-1.10813522 11.69270645 -1.10297394 12.727164 -1.09765625 13.79296875 C-1.0962413 14.85413406 -1.09482635 15.91529938 -1.09336853 17.00862122 C-1.08776606 20.40160935 -1.07521314 23.79453177 -1.0625 27.1875 C-1.05748532 29.48632717 -1.05292236 31.78515538 -1.04882812 34.08398438 C-1.03779583 39.72267872 -1.0210553 45.36133466 -1 51 C-0.34 51.33 0.32 51.66 1 52 C-0.32 52 -1.64 52 -3 52 C-5.31324415 44.55248225 -5.43577707 37.25814014 -5.625 29.5 C-5.66367188 28.200625 -5.70234375 26.90125 -5.7421875 25.5625 C-5.83593347 22.37513714 -5.92164349 19.1877721 -6 16 C-6.33 16 -6.66 16 -7 16 C-7.33 12.37 -7.66 8.74 -8 5 C-11.9714169 5.62841973 -11.9714169 5.62841973 -14 8 C-14.66 7.34 -15.32 6.68 -16 6 C-14.42065361 5.01441551 -12.83634827 4.03677459 -11.25 3.0625 C-10.36828125 2.51722656 -9.4865625 1.97195312 -8.578125 1.41015625 C-3.13458755 -1.56729378 -3.13458755 -1.56729378 0 0 Z " fill="#361573" transform="translate(216,36)"/>
<path d="M0 0 C4.74833458 0.575279 8.43494474 2.69956147 12.5 5.0625 C13.20342529 5.4651709 13.90685059 5.8678418 14.6315918 6.28271484 C24.94088571 12.21932169 34.98723438 18.57898798 45 25 C43 26 43 26 41.16015625 25.51171875 C40.46792969 25.23972656 39.77570313 24.96773437 39.0625 24.6875 C38.37285156 24.42324219 37.68320313 24.15898438 36.97265625 23.88671875 C35 23 35 23 32 21 C30.11966003 20.40678131 28.22129792 19.86904181 26.3125 19.375 C25.31863281 19.11460938 24.32476562 18.85421875 23.30078125 18.5859375 C22.16189453 18.29589844 22.16189453 18.29589844 21 18 C21 17.34 21 16.68 21 16 C19.02 15.34 17.04 14.68 15 14 C15 13.34 15 12.68 15 12 C14.34 12 13.68 12 13 12 C13 11.34 13 10.68 13 10 C10.03 9.01 7.06 8.02 4 7 C3.67 5.02 3.34 3.04 3 1 C1.68 1.33 0.36 1.66 -1 2 C-0.67 1.34 -0.34 0.68 0 0 Z " fill="#5927A6" transform="translate(213,34)"/>
<path d="M0 0 C0.66 0 1.32 0 2 0 C2 48.84 2 97.68 2 148 C0.02 147.67 -1.96 147.34 -4 147 C-3.67 146.01 -3.34 145.02 -3 144 C-1.68 143.67 -0.36 143.34 1 143 C0.67 97.46 0.34 51.92 0 5 C-0.66 4.67 -1.32 4.34 -2 4 C-1.34 2.68 -0.68 1.36 0 0 Z " fill="#6032A3" transform="translate(342,123)"/>
<path d="M0 0 C0 0.99 0 1.98 0 3 C-1.32 3 -2.64 3 -4 3 C-4 34.35 -4 65.7 -4 98 C-6.475 98.99 -6.475 98.99 -9 100 C-8.51136978 99.51590668 -8.02273956 99.03181335 -7.51930237 98.53305054 C-5.36041218 94.93364988 -5.62100966 91.54300074 -5.69116211 87.47119141 C-5.69393661 86.61217728 -5.69671112 85.75316315 -5.6995697 84.86811829 C-5.71185289 82.02900748 -5.74493939 79.19050855 -5.77734375 76.3515625 C-5.78802161 74.37625922 -5.79707776 72.40094656 -5.80458069 70.42562866 C-5.82737629 65.22296749 -5.86641577 60.02057348 -5.9105835 54.8180542 C-5.98071905 46.49800524 -6.03609672 38.17797013 -6.07293892 29.85770798 C-6.08961514 26.95387109 -6.1191789 24.05035745 -6.14964294 21.14663696 C-6.16010769 19.36029356 -6.17006792 17.57394711 -6.17944336 15.78759766 C-6.19134705 14.98323776 -6.20325073 14.17887787 -6.21551514 13.35014343 C-6.22499204 8.86112759 -5.85306787 5.18148053 -4 1 C-2 0 -2 0 0 0 Z " fill="#C4ABDF" transform="translate(300,147)"/>
<path d="M0 0 C1.485 0.99 1.485 0.99 3 2 C2.814375 3.051875 2.62875 4.10375 2.4375 5.1875 C1.82481677 8.78843231 1.82481677 8.78843231 2.5 11.45703125 C3.01306999 14.06647314 2.91622848 15.87978904 2.5625 18.5 C1.58099055 27.62300452 1.91706109 36.83716474 2 46 C2.99 46 3.98 46 5 46 C5 46.66 5 47.32 5 48 C4.01 48 3.02 48 2 48 C2 48.66 2 49.32 2 50 C2.66 50 3.32 50 4 50 C3.67 50.66 3.34 51.32 3 52 C2.01 51.67 1.02 51.34 0 51 C-1.20516687 48.58966626 -1.12686106 47.0741859 -1.12939453 44.38256836 C-1.13254669 43.42495102 -1.13569885 42.46733368 -1.13894653 41.48069763 C-1.1369223 40.44421585 -1.13489807 39.40773407 -1.1328125 38.33984375 C-1.13376923 37.27963516 -1.13472595 36.21942657 -1.13571167 35.12709045 C-1.13639295 32.88347311 -1.13454227 30.6398538 -1.13037109 28.39624023 C-1.12501686 24.94836028 -1.13032058 21.50061029 -1.13671875 18.05273438 C-1.13605806 15.87760388 -1.1347771 13.70247346 -1.1328125 11.52734375 C-1.13483673 10.48883774 -1.13686096 9.45033173 -1.13894653 8.38035583 C-1.13579437 7.42589066 -1.13264221 6.47142548 -1.12939453 5.48803711 C-1.12859894 4.64357529 -1.12780334 3.79911346 -1.12698364 2.92906189 C-1 1 -1 1 0 0 Z " fill="#5C20C4" transform="translate(215,36)"/>
<path d="M0 0 C0.33 0 0.66 0 1 0 C1.00238835 0.71875714 1.00477671 1.43751429 1.00723743 2.17805195 C1.06633213 19.65405602 1.14184649 37.12991148 1.23571491 54.60576344 C1.28071131 63.05690579 1.32011701 71.50800565 1.34643555 79.95922852 C1.36938461 87.32393939 1.40274774 94.68851619 1.44870156 102.05312079 C1.47267574 105.95389443 1.49137691 109.85453495 1.49761391 113.75538063 C1.50364595 117.42523431 1.52357681 121.09474717 1.55427551 124.76447487 C1.5672946 126.7569953 1.56548067 128.74959524 1.5632782 130.74215698 C1.57581635 131.92426254 1.58835449 133.1063681 1.60127258 134.32429504 C1.60588155 135.35393781 1.61049051 136.38358057 1.61523914 137.44442463 C2.0515457 140.3423657 2.72217066 141.23146753 5 143 C2 143 2 143 0 142 C0 95.14 0 48.28 0 0 Z " fill="#504F57" transform="translate(51,130)"/>
<path d="M0 0 C0 0.66 0 1.32 0 2 C-3.75960806 5.75960806 -6.75900345 6.58894145 -12 7 C-12 7.66 -12 8.32 -12 9 C-12.99 9 -13.98 9 -15 9 C-15.33 10.98 -15.66 12.96 -16 15 C-16.99 14.67 -17.98 14.34 -19 14 C-19.309375 14.9590625 -19.309375 14.9590625 -19.625 15.9375 C-21 18 -21 18 -24 18.625 C-24.99 18.74875 -25.98 18.8725 -27 19 C-27.66 19.66 -28.32 20.32 -29 21 C-31.3828125 21.6328125 -31.3828125 21.6328125 -34.125 22.125 C-35.03507813 22.29257812 -35.94515625 22.46015625 -36.8828125 22.6328125 C-37.58148438 22.75398438 -38.28015625 22.87515625 -39 23 C-39 24.32 -39 25.64 -39 27 C-40.98 26.67 -42.96 26.34 -45 26 C-42.40505124 23.05203912 -39.40698012 21.37367917 -36.00390625 19.453125 C-35.41512192 19.11883484 -34.82633759 18.78454468 -34.2197113 18.44012451 C-32.3365413 17.3721372 -30.44968982 16.31086493 -28.5625 15.25 C-26.71509121 14.20584407 -24.86847544 13.16029867 -23.02206421 12.11437988 C-21.80479157 11.42533543 -20.586878 10.73742199 -19.36831665 10.05065918 C-16.38987419 8.36924715 -13.42533082 6.6692755 -10.48388672 4.92382812 C-9.40510254 4.28380859 -8.32631836 3.64378906 -7.21484375 2.984375 C-6.25570068 2.40913086 -5.29655762 1.83388672 -4.30834961 1.24121094 C-2 0 -2 0 0 0 Z " fill="#5F33AF" transform="translate(291,247)"/>
<path d="M0 0 C0 12.21 0 24.42 0 37 C-0.33 37 -0.66 37 -1 37 C-1 25.45 -1 13.9 -1 2 C-1.99 2.99 -2.98 3.98 -4 5 C-4 5.66 -4 6.32 -4 7 C-5.98 7.99 -5.98 7.99 -8 9 C-8 10.65 -8 12.3 -8 14 C-11 14 -11 14 -14 12 C-16.27538323 11.33386665 -16.27538323 11.33386665 -18.6875 10.875 C-19.89986328 10.62363281 -19.89986328 10.62363281 -21.13671875 10.3671875 C-21.75160156 10.24601563 -22.36648437 10.12484375 -23 10 C-22.01 7.69 -21.02 5.38 -20 3 C-19.34 3.33 -18.68 3.66 -18 4 C-18 5.65 -18 7.3 -18 9 C-17.01 9 -16.02 9 -15 9 C-15 8.34 -15 7.68 -15 7 C-12.48046875 5.2734375 -12.48046875 5.2734375 -9.1875 3.375 C-8.10855469 2.74335938 -7.02960938 2.11171875 -5.91796875 1.4609375 C-3 0 -3 0 0 0 Z " fill="#5B5A64" transform="translate(231,177)"/>
<path d="M0 0 C0 1.98 0 3.96 0 6 C-0.66 6 -1.32 6 -2 6 C-2.2475 7.051875 -2.495 8.10375 -2.75 9.1875 C-4.04616274 13.69668586 -6.12650609 16.90712855 -10.25 19.3125 C-11.11625 19.6528125 -11.11625 19.6528125 -12 20 C-12.33 19.67 -12.66 19.34 -13 19 C-13 17.33333333 -13 15.66666667 -13 14 C-13.33 13.34 -13.66 12.68 -14 12 C-13.34 12 -12.68 12 -12 12 C-11.67 11.34 -11.34 10.68 -11 10 C-11.33 9.34 -11.66 8.68 -12 8 C-11.5625 5.875 -11.5625 5.875 -11 4 C-10.01 4 -9.02 4 -8 4 C-8 3.34 -8 2.68 -8 2 C-4.91190305 0.23537317 -3.76687864 0 0 0 Z " fill="#120E1F" transform="translate(208,41)"/>
<path d="M0 0 C0.33 0 0.66 0 1 0 C1.02505615 1.08829102 1.0501123 2.17658203 1.07592773 3.29785156 C1.1711166 7.3907159 1.27105055 11.48345372 1.37231445 15.57617188 C1.41524697 17.33720918 1.45694497 19.09827708 1.49731445 20.859375 C1.72155233 30.6040333 1.9999628 40.29657154 3 50 C0 46.25 0 46.25 0 44 C-0.66 44 -1.32 44 -2 44 C-2.33 31.13 -2.66 18.26 -3 5 C-2.34 4.67 -1.68 4.34 -1 4 C-0.34786708 1.97536745 -0.34786708 1.97536745 0 0 Z " fill="#1C1032" transform="translate(210,42)"/>
<path d="M0 0 C2.75 1.875 2.75 1.875 5 4 C5 4.33 5 4.66 5 5 C7.97 5.495 7.97 5.495 11 6 C11 6.99 11 7.98 11 9 C8 9 8 9 -2 3 C-2.33 34.35 -2.66 65.7 -3 98 C-2.34 98.33 -1.68 98.66 -1 99 C-1.99 99 -2.98 99 -4 99 C-4 66.66 -4 34.32 -4 1 C-2.68 0.67 -1.36 0.34 0 0 Z " fill="#C5C4CC" transform="translate(217,87)"/>
<path d="M0 0 C4.455 0.99 4.455 0.99 9 2 C9 2.99 9 3.98 9 5 C8.34 5.66 7.68 6.32 7 7 C6.53340269 9.72469786 6.16400746 12.38179802 5.875 15.125 C5.78863281 15.87910156 5.70226563 16.63320312 5.61328125 17.41015625 C5.40110739 19.27257127 5.19954237 21.13618931 5 23 C3.35 23.66 1.7 24.32 0 25 C0 16.75 0 8.5 0 0 Z " fill="#0F0C1E" transform="translate(52,133)"/>
<path d="M0 0 C7.38012878 3.52148277 14.33359321 7.25271032 21 12 C19.88424427 15.34726719 19.48655378 15.62079748 16.5625 17.25 C15.386875 17.8275 14.21125 18.405 13 19 C12.34 18.67 11.68 18.34 11 18 C10.34 18 9.68 18 9 18 C8 17 8 17 7 15 C5.35 15 3.7 15 2 15 C1.67 14.01 1.34 13.02 1 12 C4.3 12 7.6 12 11 12 C11 11.34 11 10.68 11 10 C10.34 9.67 9.68 9.34 9 9 C8.67 8.01 8.34 7.02 8 6 C6.06381575 5.32843384 6.06381575 5.32843384 4 5 C3.34 4.67 2.68 4.34 2 4 C2 3.34 2 2.68 2 2 C1.34 2 0.68 2 0 2 C0 1.34 0 0.68 0 0 Z " fill="#5A2DA3" transform="translate(320,98)"/>
<path d="M0 0 C4.6393176 1.63952583 8.63855858 4.06871052 12.8125 6.625 C13.50537109 7.04523438 14.19824219 7.46546875 14.91210938 7.8984375 C16.61010748 8.9289467 18.30533614 9.96401681 20 11 C19.34 11.66 18.68 12.32 18 13 C17.01 13 16.02 13 15 13 C14.67 13.66 14.34 14.32 14 15 C13.46890625 14.38640625 12.9378125 13.7728125 12.390625 13.140625 C9.60177978 10.64342373 7.31437344 9.83480931 3.75 8.75 C2.67234375 8.41484375 1.5946875 8.0796875 0.484375 7.734375 C-0.33546875 7.49203125 -1.1553125 7.2496875 -2 7 C-2 4 -2 4 0 2 C0 1.34 0 0.68 0 0 Z " fill="#0D0A1B" transform="translate(118,256)"/>
<path d="M0 0 C0.99 0.33 1.98 0.66 3 1 C2.67 1.33 2.34 1.66 2 2 C1.87709282 3.65644366 1.82216092 5.31798993 1.79467773 6.97875977 C1.77473251 8.03978409 1.75478729 9.10080841 1.73423767 10.19398499 C1.71752518 11.348134 1.70081268 12.50228302 1.68359375 13.69140625 C1.66281265 14.86638168 1.64203156 16.04135712 1.62062073 17.25193787 C1.55499876 21.02206324 1.4961817 24.79226082 1.4375 28.5625 C1.3943268 31.11133573 1.35071292 33.66016403 1.30664062 36.20898438 C1.19930455 42.47257892 1.0975621 48.73624601 1 55 C1.66 55.33 2.32 55.66 3 56 C1.68 55.67 0.36 55.34 -1 55 C-1.02526605 47.32788798 -1.04283123 39.6557866 -1.05493164 31.98364258 C-1.05997377 29.37133381 -1.06680725 26.75902789 -1.07543945 24.14672852 C-1.08751036 20.40119732 -1.09322935 16.65570328 -1.09765625 12.91015625 C-1.10281754 11.73413345 -1.10797882 10.55811066 -1.11329651 9.34645081 C-1.11340981 7.72488319 -1.11340981 7.72488319 -1.11352539 6.07055664 C-1.115746 5.11347305 -1.11796661 4.15638947 -1.12025452 3.17030334 C-1 1 -1 1 0 0 Z " fill="#AE8ED4" transform="translate(243,273)"/>
<path d="M0 0 C4.72463088 0.46319911 8.17057052 1.09891706 12 4 C12 4.66 12 5.32 12 6 C12.66 6 13.32 6 14 6 C14.33 6.66 14.66 7.32 15 8 C16.31774196 8.39044206 17.65667272 8.70955086 19 9 C21.00382009 9.65509503 23.00458132 10.31974363 25 11 C25.33 12.98 25.66 14.96 26 17 C22.33057139 15.62938601 19.06140503 13.96645212 15.69921875 11.9609375 C14.72275391 11.38085938 13.74628906 10.80078125 12.74023438 10.203125 C11.73283203 9.59984375 10.72542969 8.9965625 9.6875 8.375 C8.66076172 7.76398438 7.63402344 7.15296875 6.57617188 6.5234375 C4.04886125 5.01880606 1.52356601 3.5109006 -1 2 C-0.67 1.34 -0.34 0.68 0 0 Z " fill="#7D4FB5" transform="translate(229,96)"/>
<path d="M0 0 C0.66 0.33 1.32 0.66 2 1 C2 27.07 2 53.14 2 80 C0.06616557 76.13233115 -0.37482343 74.02081913 -0.6875 69.8125 C-0.77386719 68.74644531 -0.86023438 67.68039062 -0.94921875 66.58203125 C-0.97435547 65.30392578 -0.97435547 65.30392578 -1 64 C-0.505 63.505 -0.505 63.505 0 63 C0.0940067 61.03630847 0.11743381 59.06920801 0.11352539 57.10327148 C0.11341209 55.21142372 0.11341209 55.21142372 0.11329651 53.28135681 C0.1081891 51.89460206 0.10297309 50.50784771 0.09765625 49.12109375 C0.09579201 47.71004791 0.09436814 46.29900143 0.09336853 44.88795471 C0.08954379 41.16759465 0.0797139 37.4472734 0.06866455 33.72692871 C0.05844948 29.93319219 0.05387071 26.13944942 0.04882812 22.34570312 C0.03809158 14.89711769 0.0210157 7.44856428 0 0 Z " fill="#0A0913" transform="translate(228,232)"/>
<path d="M0 0 C0.66 0.33 1.32 0.66 2 1 C-3.61 4.3 -9.22 7.6 -15 11 C-12.69 11.33 -10.38 11.66 -8 12 C-8 12.66 -8 13.32 -8 14 C-9.65 14 -11.3 14 -13 14 C-13.33 15.32 -13.66 16.64 -14 18 C-16.97 18.33 -19.94 18.66 -23 19 C-23.33 17.35 -23.66 15.7 -24 14 C-19.01032151 10.98252645 -14.01097156 7.98198127 -9 5 C-7.54980469 4.13568359 -7.54980469 4.13568359 -6.0703125 3.25390625 C-4.89082031 2.57134766 -4.89082031 2.57134766 -3.6875 1.875 C-3.01074219 1.48054687 -2.33398438 1.08609375 -1.63671875 0.6796875 C-1.09660156 0.45539063 -0.55648438 0.23109375 0 0 Z " fill="#8C63CF" transform="translate(324,132)"/>
<path d="M0 0 C0.66 0 1.32 0 2 0 C2.72750788 1.40691607 3.43140353 2.82606022 4.125 4.25 C4.51945312 5.03890625 4.91390625 5.8278125 5.3203125 6.640625 C6 9 6 9 5.1171875 11.296875 C4.56417969 12.13992188 4.56417969 12.13992188 4 13 C5.32 13.33 6.64 13.66 8 14 C8 14.66 8 15.32 8 16 C4.30123909 14.62712658 1.0485524 12.93644547 -2.3125 10.875 C-3.19550781 10.33617187 -4.07851562 9.79734375 -4.98828125 9.2421875 C-5.65214844 8.83226562 -6.31601563 8.42234375 -7 8 C-6.67 7.34 -6.34 6.68 -6 6 C-5.34 6 -4.68 6 -4 6 C-3.67 4.68 -3.34 3.36 -3 2 C-2.01 2 -1.02 2 0 2 C0 1.34 0 0.68 0 0 Z " fill="#161427" transform="translate(105,292)"/>
<path d="M0 0 C0 0.66 0 1.32 0 2 C1.65 2 3.3 2 5 2 C3.68 2.33 2.36 2.66 1 3 C1 3.99 1 4.98 1 6 C0.34 6 -0.32 6 -1 6 C-1 5.34 -1 4.68 -1 4 C-2.32 3.67 -3.64 3.34 -5 3 C-5 4.65 -5 6.3 -5 8 C-5.639375 8.12375 -6.27875 8.2475 -6.9375 8.375 C-7.618125 8.58125 -8.29875 8.7875 -9 9 C-9.33 9.66 -9.66 10.32 -10 11 C-10.99 10.67 -11.98 10.34 -13 10 C-13.99 10 -14.98 10 -16 10 C-16 10.99 -16 11.98 -16 13 C-15.34 13 -14.68 13 -14 13 C-14 12.34 -14 11.68 -14 11 C-13.34 11.33 -12.68 11.66 -12 12 C-12.66 13.32 -13.32 14.64 -14 16 C-16.475 15.01 -16.475 15.01 -19 14 C-19 12.68 -19 11.36 -19 10 C-17.47119141 8.62792969 -17.47119141 8.62792969 -15.3515625 7.421875 C-14.59359375 6.98359375 -13.835625 6.5453125 -13.0546875 6.09375 C-12.25289063 5.6503125 -11.45109375 5.206875 -10.625 4.75 C-9.43390625 4.06164062 -9.43390625 4.06164062 -8.21875 3.359375 C-2.31984747 0 -2.31984747 0 0 0 Z " fill="#494753" transform="translate(81,105)"/>
<path d="M0 0 C2.00720923 0.28674418 4.0085944 0.61866701 6 1 C0.27047424 5.74732134 -3.82184511 8.27742043 -11.3125 9.1875 C-12.56675781 9.34605469 -13.82101562 9.50460937 -15.11328125 9.66796875 C-16.54220703 9.83232422 -16.54220703 9.83232422 -18 10 C-17.67 9.01 -17.34 8.02 -17 7 C-14.4375 5.8125 -14.4375 5.8125 -12 5 C-12 4.01 -12 3.02 -12 2 C-8.26269966 1.30468831 -4.79200032 1 -1 1 C-0.67 0.67 -0.34 0.34 0 0 Z " fill="#6230BF" transform="translate(338,270)"/>
<path d="M0 0 C5.84700863 2.74532234 11.54321665 5.75196957 17.125 9 C18.24132812 9.639375 19.35765625 10.27875 20.5078125 10.9375 C23 13 23 13 23.3671875 15.75 C23.24601562 16.4925 23.12484375 17.235 23 18 C12.47773733 13.60403248 12.47773733 13.60403248 8 10 C7.32650839 8.33607955 6.6590841 6.66967972 6 5 C4.35636866 4.27840576 2.68949614 3.60648579 1 3 C0.67 2.01 0.34 1.02 0 0 Z " fill="#0B0A12" transform="translate(150,275)"/>
<path d="M0 0 C0.33 0 0.66 0 1 0 C1 25.08 1 50.16 1 76 C-0.98 74.68 -2.96 73.36 -5 72 C-4.01 71.505 -4.01 71.505 -3 71 C-2.67 70.01 -2.34 69.02 -2 68 C-1.67 68 -1.34 68 -1 68 C-0.67 45.56 -0.34 23.12 0 0 Z " fill="#060410" transform="translate(212,105)"/>
<path d="M0 0 C4.14032846 1.54385129 7.93553053 3.51028938 11.8125 5.625 C12.40998047 5.94984375 13.00746094 6.2746875 13.62304688 6.609375 C15.08337135 7.40379151 16.54187491 8.20155376 18 9 C16.02 9.99 16.02 9.99 14 11 C13.01 10.34 12.02 9.68 11 9 C10.01 10.485 10.01 10.485 9 12 C8.01 11.67 7.02 11.34 6 11 C5.01 12.32 4.02 13.64 3 15 C3 13.02 3 11.04 3 9 C3.66 9 4.32 9 5 9 C4.67 8.34 4.34 7.68 4 7 C3.01 7.66 2.02 8.32 1 9 C0.67 6.03 0.34 3.06 0 0 Z M12 11 C14 12 14 12 14 12 Z " fill="#312F3B" transform="translate(188,203)"/>
<path d="M0 0 C3.99012371 0.55989303 6.5255052 1.75669768 9.8125 4.0625 C10.60269531 4.61035156 11.39289063 5.15820312 12.20703125 5.72265625 C12.79871094 6.14417969 13.39039062 6.56570312 14 7 C13.67 7.99 13.34 8.98 13 10 C12.34 10 11.68 10 11 10 C11 10.66 11 11.32 11 12 C10.34 12 9.68 12 9 12 C8.67 10.68 8.34 9.36 8 8 C6.906875 8.04125 5.81375 8.0825 4.6875 8.125 C1 8 1 8 -2 6 C-2 5.34 -2 4.68 -2 4 C-2.99 4 -3.98 4 -5 4 C-4.67 3.01 -4.34 2.02 -4 1 C-4 1.66 -4 2.32 -4 3 C-2.02 3.495 -2.02 3.495 0 4 C0 2.68 0 1.36 0 0 Z " fill="#191722" transform="translate(85,146)"/>
<path d="M0 0 C0.33 0.99 0.66 1.98 1 3 C0.34 3 -0.32 3 -1 3 C-1.33 3.99 -1.66 4.98 -2 6 C-3.32 6 -4.64 6 -6 6 C-6.33 6.99 -6.66 7.98 -7 9 C-9.54497996 12.53469439 -12.84359905 13.23799316 -17 14 C-19.51338879 13.59492957 -21.59152622 12.88474547 -24 12 C-21.53698577 9.53698577 -19.72639964 9.23233479 -16.375 8.375 C-15.37210937 8.11460937 -14.36921875 7.85421875 -13.3359375 7.5859375 C-12.56507813 7.39257812 -11.79421875 7.19921875 -11 7 C-11 6.34 -11 5.68 -11 5 C-10.28972656 4.72285156 -9.57945312 4.44570313 -8.84765625 4.16015625 C-7.46900391 3.61681641 -7.46900391 3.61681641 -6.0625 3.0625 C-5.14597656 2.70285156 -4.22945313 2.34320313 -3.28515625 1.97265625 C-1.07581467 1.2003782 -1.07581467 1.2003782 0 0 Z " fill="#5A23B3" transform="translate(313,284)"/>
<path d="M0 0 C0.66 0.33 1.32 0.66 2 1 C1.62607279 3.71097227 1.18642373 4.82000467 -0.8125 6.75 C-3 8 -3 8 -7 8 C-7 8.66 -7 9.32 -7 10 C-6.01 9.67 -5.02 9.34 -4 9 C-4 9.66 -4 10.32 -4 11 C-7 12 -7 12 -10 11 C-11.32 11 -12.64 11 -14 11 C-14.33 12.32 -14.66 13.64 -15 15 C-16.65 15 -18.3 15 -20 15 C-20 14.01 -20 13.02 -20 12 C-19.01 12 -18.02 12 -17 12 C-17 11.34 -17 10.68 -17 10 C-13.91190305 8.23537317 -12.76687864 8 -9 8 C-8.34 7.01 -7.68 6.02 -7 5 C-6.34 5 -5.68 5 -5 5 C-5 4.34 -5 3.68 -5 3 C-2.625 1.3125 -2.625 1.3125 0 0 Z " fill="#5C2BB1" transform="translate(296,244)"/>
<path d="M0 0 C0.66 0.33 1.32 0.66 2 1 C1.67 1.99 1.34 2.98 1 4 C1.99 4 2.98 4 4 4 C1.0761589 7.18019683 -1.83401169 9.25351309 -5.625 11.3125 C-7.06746094 12.11107422 -7.06746094 12.11107422 -8.5390625 12.92578125 C-9.35117187 13.28027344 -10.16328125 13.63476562 -11 14 C-11.66 13.67 -12.32 13.34 -13 13 C-11.1875 10 -11.1875 10 -9 7 C-8.01 7 -7.02 7 -6 7 C-6.33 5.68 -6.66 4.36 -7 3 C-4.69631264 1.93347808 -2.35981813 0.93578995 0 0 Z " fill="#5C25B6" transform="translate(278,303)"/>
<path d="M0 0 C4.06225548 0.57823096 6.84762346 1.89117737 10.3125 4.0625 C11.19550781 4.61035156 12.07851563 5.15820312 12.98828125 5.72265625 C13.65214844 6.14417969 14.31601563 6.56570312 15 7 C14.34 7.66 13.68 8.32 13 9 C12.01 8.67 11.02 8.34 10 8 C10 8.66 10 9.32 10 10 C6.87709365 9.51421457 4.00419641 9.0013988 1 8 C0.67 5.36 0.34 2.72 0 0 Z " fill="#23222D" transform="translate(51,125)"/>
<path d="M0 0 C1.77433812 0.93084971 3.54435149 1.86994613 5.3125 2.8125 C6.29863281 3.33457031 7.28476563 3.85664063 8.30078125 4.39453125 C10.61665068 5.7719876 12.23611001 6.99530591 14 9 C11.20315672 10.90185343 9.89614391 10.99271185 6.4375 10.75 C3 10 3 10 0 8 C0.33 7.01 0.66 6.02 1 5 C1 3.27917076 0.4277972 1.65771414 0 0 Z " fill="#2A2835" transform="translate(206,213)"/>
<path d="M0 0 C0.66 0.33 1.32 0.66 2 1 C1.67657623 1.56354187 1.35315247 2.12708374 1.01992798 2.70770264 C-0.10033942 5.22551375 -0.27364319 6.93435366 -0.31884766 9.67675781 C-0.33871735 10.59741028 -0.35858704 11.51806274 -0.37905884 12.46661377 C-0.39638565 13.94493683 -0.39638565 13.94493683 -0.4140625 15.453125 C-0.43342865 16.46848328 -0.4527948 17.48384155 -0.4727478 18.52996826 C-0.53248099 21.76989365 -0.57890428 25.00985468 -0.625 28.25 C-0.66318551 30.44793208 -0.70223758 32.64584928 -0.7421875 34.84375 C-0.83817735 40.22903456 -0.92324323 45.61440883 -1 51 C-0.01 51.33 0.98 51.66 2 52 C1.34 52.99 0.68 53.98 0 55 C-0.66 55 -1.32 55 -2 55 C-2.05057965 47.48863592 -2.08568257 39.97731551 -2.10986328 32.46582031 C-2.11994038 29.90883747 -2.13360226 27.35186621 -2.15087891 24.79492188 C-2.17505217 21.12627308 -2.18646585 17.45777621 -2.1953125 13.7890625 C-2.20563507 12.64007477 -2.21595764 11.49108704 -2.22659302 10.30728149 C-2.22674408 9.2463327 -2.22689514 8.18538391 -2.22705078 7.09228516 C-2.231492 6.15518707 -2.23593323 5.21808899 -2.24050903 4.25259399 C-2 2 -2 2 0 0 Z " fill="#642EAA" transform="translate(246,273)"/>
<path d="M0 0 C0.77537109 0.36158203 0.77537109 0.36158203 1.56640625 0.73046875 C0.24640625 1.06046875 -1.07359375 1.39046875 -2.43359375 1.73046875 C-2.43359375 2.39046875 -2.43359375 3.05046875 -2.43359375 3.73046875 C-3.42359375 4.06046875 -4.41359375 4.39046875 -5.43359375 4.73046875 C-5.72234375 5.72046875 -6.01109375 6.71046875 -6.30859375 7.73046875 C-8.43359375 10.73046875 -8.43359375 10.73046875 -11.515625 11.34765625 C-14.8293954 11.58461058 -18.11177296 11.72099137 -21.43359375 11.73046875 C-17.61512656 8.52063769 -13.6702692 5.91176405 -9.37109375 3.41796875 C-8.75943359 3.04607422 -8.14777344 2.67417969 -7.51757812 2.29101562 C-2.99907186 -0.33216045 -2.99907186 -0.33216045 0 0 Z " fill="#5D2EA9" transform="translate(328.43359375,132.26953125)"/>
<path d="M0 0 C0 1.32 0 2.64 0 4 C0.66 4 1.32 4 2 4 C2 4.66 2 5.32 2 6 C2.78375 6.144375 3.5675 6.28875 4.375 6.4375 C7 7 7 7 9 8 C9 9.32 9 10.64 9 12 C4.72813475 10.47146065 1.00673137 8.28490519 -2.8125 5.875 C-3.40998047 5.50246094 -4.00746094 5.12992187 -4.62304688 4.74609375 C-6.08426251 3.8342952 -7.54244585 2.91764024 -9 2 C-5.5647952 -0.29013653 -4.014669 -0.17842973 0 0 Z " fill="#2E2D37" transform="translate(142,319)"/>
<path d="M0 0 C1.485 0.99 1.485 0.99 3 2 C2.67854004 2.79293457 2.35708008 3.58586914 2.02587891 4.40283203 C0.75397915 8.86265377 0.64748888 12.94091011 0.5859375 17.5546875 C0.56657135 18.45623566 0.5472052 19.35778381 0.5272522 20.28665161 C0.46775704 23.14933996 0.42119183 26.01206918 0.375 28.875 C0.33679253 30.82293363 0.2977392 32.77085086 0.2578125 34.71875 C0.16208035 39.47903258 0.07793884 44.2393942 0 49 C-0.33 49 -0.66 49 -1 49 C-1.0252689 42.18238106 -1.04283244 35.36477411 -1.05493164 28.54711914 C-1.05997333 26.22582549 -1.06680651 23.90453503 -1.07543945 21.58325195 C-1.08751225 18.25471205 -1.09322979 14.92621398 -1.09765625 11.59765625 C-1.10281754 10.55287613 -1.10797882 9.50809601 -1.11329651 8.43165588 C-1.11337204 7.47073532 -1.11344757 6.50981476 -1.11352539 5.51977539 C-1.115746 4.66928116 -1.11796661 3.81878693 -1.12025452 2.94252014 C-1 1 -1 1 0 0 Z " fill="#5D2DB4" transform="translate(215,36)"/>
<path d="M0 0 C6.0546875 -0.1953125 6.0546875 -0.1953125 8 0 C8.66 0.66 9.32 1.32 10 2 C9.38125 2.2475 8.7625 2.495 8.125 2.75 C5.58469272 4.2442984 4.97135817 5.24781851 4 8 C4 9.32 4 10.64 4 12 C2.68 11.67 1.36 11.34 0 11 C0.33 10.01 0.66 9.02 1 8 C0.34 8 -0.32 8 -1 8 C-1 7.01 -1 6.02 -1 5 C-1.66 4.67 -2.32 4.34 -3 4 C-2.01 3.34 -1.02 2.68 0 2 C0 1.34 0 0.68 0 0 Z " fill="#090718" transform="translate(209,188)"/>
<path d="M0 0 C0.99 0 1.98 0 3 0 C3 0.66 3 1.32 3 2 C2.01 2 1.02 2 0 2 C0 1.34 0 0.68 0 0 Z M-2.1875 0.625 C0.78997026 2.49655273 3.3380412 4.70103558 6 7 C5.67 7.99 5.34 8.98 5 10 C1.28111761 9.49287967 -1.73454239 8.88391785 -5 7 C-4.67 5.68 -4.34 4.36 -4 3 C-4.33 3.33 -4.66 3.66 -5 4 C-5.66 4 -6.32 4 -7 4 C-7 3.01 -7 2.02 -7 1 C-4 0 -4 0 -2.1875 0.625 Z " fill="#0A0816" transform="translate(72,114)"/>
<path d="M0 0 C0.66 0.33 1.32 0.66 2 1 C2 1.99 2 2.98 2 4 C2.66 4.33 3.32 4.66 4 5 C4 5.66 4 6.32 4 7 C2.68 7 1.36 7 0 7 C0 7.66 0 8.32 0 9 C-0.99 9.33 -1.98 9.66 -3 10 C-3 9.34 -3 8.68 -3 8 C-4.65 8 -6.3 8 -8 8 C-7.9375 6.25 -7.9375 6.25 -7 4 C-4.74876994 2.27481113 -2.59865097 1.23093993 0 0 Z " fill="#32303B" transform="translate(89,99)"/>
<path d="M0 0 C0.33 1.32 0.66 2.64 1 4 C2.65 4.33 4.3 4.66 6 5 C6.33 4.34 6.66 3.68 7 3 C7.33 3.99 7.66 4.98 8 6 C8.99 6.33 9.98 6.66 11 7 C10.33333333 8.33333333 9.66666667 9.66666667 9 11 C4.22390502 9.35821735 0.20617096 6.73453298 -4 4 C-2.68 2.68 -1.36 1.36 0 0 Z M7 2 C9 3 9 3 9 3 Z " fill="#1C1B2A" transform="translate(89,288)"/>
<path d="M0 0 C0.33 0 0.66 0 1 0 C1.02505615 1.08829102 1.0501123 2.17658203 1.07592773 3.29785156 C1.1711166 7.3907159 1.27105055 11.48345372 1.37231445 15.57617188 C1.41524697 17.33720918 1.45694497 19.09827708 1.49731445 20.859375 C1.72155233 30.6040333 1.9999628 40.29657154 3 50 C-1.13508584 43.79737123 -1.25190503 37.73999652 -0.9765625 30.56640625 C-0.95153656 29.68846909 -0.92651062 28.81053192 -0.90072632 27.9059906 C-0.81909117 25.1244007 -0.7222861 22.34358203 -0.625 19.5625 C-0.56670259 17.66734838 -0.50940063 15.77216586 -0.453125 13.87695312 C-0.31359719 9.25086508 -0.16047007 4.62540703 0 0 Z " fill="#200E44" transform="translate(210,42)"/>
<path d="M0 0 C2.64 0 5.28 0 8 0 C8.33 0.66 8.66 1.32 9 2 C8.34 2 7.68 2 7 2 C7 2.66 7 3.32 7 4 C8.65 4 10.3 4 12 4 C12 4.33 12 4.66 12 5 C15.3 5.33 18.6 5.66 22 6 C18.32168388 9.67831612 18.32168388 9.67831612 15 10 C13.16894531 9.30322266 13.16894531 9.30322266 11.328125 8.1640625 C10.66425781 7.75929687 10.00039063 7.35453125 9.31640625 6.9375 C8.63449219 6.504375 7.95257813 6.07125 7.25 5.625 C6.55261719 5.19960937 5.85523438 4.77421875 5.13671875 4.3359375 C3.40028331 3.26213398 1.69679007 2.13541425 0 1 C0 0.67 0 0.34 0 0 Z " fill="#9B72CE" transform="translate(279,128)"/>
<path d="M0 0 C5.05992125 0.56774707 8.91753858 2.94789312 13.25 5.4375 C13.9821875 5.84548828 14.714375 6.25347656 15.46875 6.67382812 C20.8696772 9.7393544 20.8696772 9.7393544 22 12 C19.0625 11.625 19.0625 11.625 16 11 C15.67 10.34 15.34 9.68 15 9 C12.42048126 8.30906104 12.42048126 8.30906104 9.4375 7.875 C8.42558594 7.70742188 7.41367188 7.53984375 6.37109375 7.3671875 C5.58863281 7.24601562 4.80617187 7.12484375 4 7 C3.67 5.02 3.34 3.04 3 1 C1.68 1.33 0.36 1.66 -1 2 C-0.67 1.34 -0.34 0.68 0 0 Z " fill="#926EBF" transform="translate(213,34)"/>
<path d="M0 0 C-0.99 0.33 -1.98 0.66 -3 1 C-3 2.32 -3 3.64 -3 5 C-4.175625 5.2165625 -4.175625 5.2165625 -5.375 5.4375 C-7.96421018 5.87798925 -7.96421018 5.87798925 -10 7 C-10 6.34 -10 5.68 -10 5 C-13.63 5 -17.26 5 -21 5 C-20.67 4.34 -20.34 3.68 -20 3 C-15.71 3 -11.42 3 -7 3 C-7.33 2.01 -7.66 1.02 -8 0 C-4.71023192 -1.09658936 -3.28696233 -0.79953138 0 0 Z " fill="#6623C8" transform="translate(247,55)"/>
<path d="M0 0 C-0.99 0.66 -1.98 1.32 -3 2 C-4.93309683 5.02457327 -5.34508185 7.70437007 -5.625 11.25 C-5.69976562 12.14203125 -5.77453125 13.0340625 -5.8515625 13.953125 C-5.90054688 14.62859375 -5.94953125 15.3040625 -6 16 C-6.33 16 -6.66 16 -7 16 C-7.33 12.37 -7.66 8.74 -8 5 C-11.9714169 5.62841973 -11.9714169 5.62841973 -14 8 C-14.66 7.34 -15.32 6.68 -16 6 C-14.42065361 5.01441551 -12.83634827 4.03677459 -11.25 3.0625 C-10.36828125 2.51722656 -9.4865625 1.97195312 -8.578125 1.41015625 C-3.13458755 -1.56729378 -3.13458755 -1.56729378 0 0 Z " fill="#403A52" transform="translate(216,36)"/>
<path d="M0 0 C3.69876091 1.37287342 6.9514476 3.06355453 10.3125 5.125 C11.19550781 5.66382812 12.07851563 6.20265625 12.98828125 6.7578125 C13.65214844 7.16773437 14.31601562 7.57765625 15 8 C13.02 8.99 13.02 8.99 11 10 C12.32 10.66 13.64 11.32 15 12 C14.01 12.495 14.01 12.495 13 13 C12.01 12.67 11.02 12.34 10 12 C9.5978125 11.0409375 9.5978125 11.0409375 9.1875 10.0625 C8.12091134 7.65969749 8.12091134 7.65969749 5 7.125 C4.01 6.75375 3.02 6.3825 2 6 C0.625 2.875 0.625 2.875 0 0 Z " fill="#6D43AC" transform="translate(305,89)"/>
<path d="M0 0 C4.9154515 1.31877967 9.36441776 3.37517392 13 7 C13 7.99 13 8.98 13 10 C9.7 9.34 6.4 8.68 3 8 C3 7.34 3 6.68 3 6 C2.34 5.67 1.68 5.34 1 5 C1.66 4.67 2.32 4.34 3 4 C2.2575 3.2884375 2.2575 3.2884375 1.5 2.5625 C0 1 0 1 0 0 Z " fill="#6B43AE" transform="translate(258,60)"/>
<path d="M0 0 C-3 2 -3 2 -7 2 C-6.67 2.66 -6.34 3.32 -6 4 C-4.68 3.67 -3.36 3.34 -2 3 C-2 3.99 -2 4.98 -2 6 C-5.75 7.125 -5.75 7.125 -8 6 C-8.33 6.99 -8.66 7.98 -9 9 C-9.66 8.34 -10.32 7.68 -11 7 C-11.33 7 -11.66 7 -12 7 C-13.33568021 6.67619874 -14.66923011 6.34342449 -16 6 C-15.360625 5.896875 -14.72125 5.79375 -14.0625 5.6875 C-13.381875 5.460625 -12.70125 5.23375 -12 5 C-11.67 4.01 -11.34 3.02 -11 2 C-3.9360873 -1.73187841 -3.9360873 -1.73187841 0 0 Z " fill="#5A23BA" transform="translate(328,275)"/>
<path d="M0 0 C0.52078125 0.24621094 1.0415625 0.49242188 1.578125 0.74609375 C-0.8950696 4.96507277 -3.97765827 6.00015146 -8.421875 7.74609375 C-9.411875 8.40609375 -10.401875 9.06609375 -11.421875 9.74609375 C-12.741875 9.08609375 -14.061875 8.42609375 -15.421875 7.74609375 C-13.34750042 6.37616719 -11.26426038 5.02549829 -9.171875 3.68359375 C-8.58535156 3.29365234 -7.99882812 2.90371094 -7.39453125 2.50195312 C-2.96392641 -0.31073422 -2.96392641 -0.31073422 0 0 Z " fill="#9D7DC7" transform="translate(341.421875,123.25390625)"/>
<path d="M0 0 C2.89508545 1.44754273 5.17294585 3.2107393 7.625 5.3125 C6.820625 5.43625 6.01625 5.56 5.1875 5.6875 C3.9190625 5.996875 3.9190625 5.996875 2.625 6.3125 C2.295 6.9725 1.965 7.6325 1.625 8.3125 C0.75875 7.384375 0.75875 7.384375 -0.125 6.4375 C-2.17749821 4.49902947 -3.80866582 3.41235751 -6.375 2.3125 C-4.83935652 -0.75878696 -3.16580538 -0.91641735 0 0 Z " fill="#282631" transform="translate(130.375,262.6875)"/>
<path d="M0 0 C3.96 0 7.92 0 12 0 C11.67 0.66 11.34 1.32 11 2 C13.97 2.495 13.97 2.495 17 3 C16 5 16 5 12.9375 6.125 C11.968125 6.41375 10.99875 6.7025 10 7 C10 6.34 10 5.68 10 5 C9.01 5.495 9.01 5.495 8 6 C7 5 7 5 6 3 C4.35 3 2.7 3 1 3 C0.67 2.01 0.34 1.02 0 0 Z " fill="#7944CA" transform="translate(321,110)"/>
<path d="M0 0 C6.44807122 0.60830861 6.44807122 0.60830861 8.9375 2.375 C10 4 10 4 10 7 C7.6875 7.625 7.6875 7.625 5 8 C4.01 7.34 3.02 6.68 2 6 C2 5.34 2 4.68 2 4 C1.34 4 0.68 4 0 4 C0 2.68 0 1.36 0 0 Z " fill="#6523C5" transform="translate(276,121)"/>
<path d="M0 0 C2.475 0.99 2.475 0.99 5 2 C5.10251672 7.12583611 5.03590199 11.94997778 4 17 C3.01 16.34 2.02 15.68 1 15 C0.61588725 12.390379 0.39706803 9.9941926 0.3125 7.375 C0.27833984 6.66859375 0.24417969 5.9621875 0.20898438 5.234375 C0.12648692 3.49014312 0.06156665 1.74509605 0 0 Z " fill="#0E0C1E" transform="translate(208,94)"/>
<path d="M0 0 C3.93657242 1.43213512 7.28931356 3.30332154 10.8125 5.5625 C12.27623047 6.49255859 12.27623047 6.49255859 13.76953125 7.44140625 C14.50558594 7.95574219 15.24164063 8.47007813 16 9 C16 9.33 16 9.66 16 10 C13.625 10.125 13.625 10.125 11 10 C10.34 9.34 9.68 8.68 9 8 C7.01276732 7.29618843 5.01222047 6.6288189 3 6 C2.34 5.67 1.68 5.34 1 5 C0.375 2.4375 0.375 2.4375 0 0 Z " fill="#7956AC" transform="translate(289,79)"/>
<path d="M0 0 C0.33 0.66 0.66 1.32 1 2 C1.99 2.66 2.98 3.32 4 4 C4.66 4.66 5.32 5.32 6 6 C8.06874034 6.6425235 8.06874034 6.6425235 10 7 C10 8.32 10 9.64 10 11 C6.30123909 9.62712658 3.0485524 7.93644547 -0.3125 5.875 C-1.19550781 5.33617187 -2.07851562 4.79734375 -2.98828125 4.2421875 C-3.65214844 3.83226562 -4.31601563 3.42234375 -5 3 C-2.25 0 -2.25 0 0 0 Z " fill="#484751" transform="translate(206,195)"/>
<path d="M0 0 C1.69752187 0.25245197 3.38471545 0.57645775 5.0625 0.9375 C5.98160156 1.13214844 6.90070313 1.32679687 7.84765625 1.52734375 C8.91306641 1.76130859 8.91306641 1.76130859 10 2 C6.81404865 4.63978826 3.69029454 7.10498388 0 9 C-0.66 8.67 -1.32 8.34 -2 8 C-1.125 1.125 -1.125 1.125 0 0 Z " fill="#8053B8" transform="translate(321,115)"/>
<path d="M0 0 C9.59453303 2.70615034 9.59453303 2.70615034 13 7 C9.18243176 8.37432457 5.92744671 7.67975039 2 7 C1.34 4.69 0.68 2.38 0 0 Z " fill="#652EC0" transform="translate(249,57)"/>
<path d="M0 0 C0.33 0.99 0.66 1.98 1 3 C2.65 2.67 4.3 2.34 6 2 C6 2.66 6 3.32 6 4 C6.99 4 7.98 4 9 4 C8.67 5.98 8.34 7.96 8 10 C7.34 10 6.68 10 6 10 C5.34 9.01 4.68 8.02 4 7 C3.34 7 2.68 7 2 7 C2 7.99 2 8.98 2 10 C1.34 10 0.68 10 0 10 C0.20625 9.38125 0.4125 8.7625 0.625 8.125 C0.74875 7.42375 0.8725 6.7225 1 6 C0.34 5.34 -0.32 4.68 -1 4 C-0.625 1.875 -0.625 1.875 0 0 Z " fill="#0B081B" transform="translate(126,306)"/>
<path d="M0 0 C0.33 0.99 0.66 1.98 1 3 C-1.31 4.65 -3.62 6.3 -6 8 C-7.32 7.34 -8.64 6.68 -10 6 C-10.33 6.66 -10.66 7.32 -11 8 C-11.66 7.34 -12.32 6.68 -13 6 C-11.21118264 4.99491199 -9.41885304 3.99607264 -7.625 3 C-6.62726563 2.443125 -5.62953125 1.88625 -4.6015625 1.3125 C-2 0 -2 0 0 0 Z " fill="#2D2B37" transform="translate(178,56)"/>
<path d="M0 0 C0.33 0 0.66 0 1 0 C1.02187378 1.47593628 1.02187378 1.47593628 1.04418945 2.98168945 C1.10216998 6.63293774 1.17940185 10.28356911 1.26245117 13.93432617 C1.29570188 15.51430243 1.32373346 17.09439752 1.34643555 18.67456055 C1.37998016 20.94631579 1.43229227 23.21698203 1.48828125 25.48828125 C1.49467117 26.19463211 1.5010611 26.90098297 1.50764465 27.6287384 C1.62174134 31.59394218 1.62174134 31.59394218 3.53198242 34.96948242 C4.01642822 35.30955322 4.50087402 35.64962402 5 36 C2 36 2 36 0 35 C0 23.45 0 11.9 0 0 Z " fill="#57565C" transform="translate(51,237)"/>
<path d="M0 0 C4.30764815 1.56641751 8.06171464 3.68336156 12 6 C9.79765548 6.57097821 7.6110702 7.07408187 5.375 7.5 C2.99712092 7.89587313 2.99712092 7.89587313 1 9 C0.67 6.03 0.34 3.06 0 0 Z " fill="#3E3C48" transform="translate(188,203)"/>
<path d="M0 0 C-2.61970793 1.53064939 -5.24501643 3.04969748 -7.875 4.5625 C-8.99455078 5.21895508 -8.99455078 5.21895508 -10.13671875 5.88867188 C-10.85214844 6.29794922 -11.56757813 6.70722656 -12.3046875 7.12890625 C-13.2944458 7.70233765 -13.2944458 7.70233765 -14.30419922 8.28735352 C-14.86381348 8.52252686 -15.42342773 8.7577002 -16 9 C-16.66 8.67 -17.32 8.34 -18 8 C-18 7.34 -18 6.68 -18 6 C-15.34771188 4.92474806 -12.71631546 3.90543849 -10 3 C-10 2.34 -10 1.68 -10 1 C-8.71073008 0.63720544 -7.41846728 0.28503302 -6.125 -0.0625 C-5.40570313 -0.25972656 -4.68640625 -0.45695312 -3.9453125 -0.66015625 C-2 -1 -2 -1 0 0 Z " fill="#9A75C8" transform="translate(319,125)"/>
<path d="M0 0 C3.95906817 1.43308135 7.28718181 3.33141949 10.8125 5.625 C11.78832031 6.25664063 12.76414063 6.88828125 13.76953125 7.5390625 C14.50558594 8.02117188 15.24164063 8.50328125 16 9 C15.01 9.495 15.01 9.495 14 10 C9.10522486 8.36840829 4.57368727 6.40118582 0 4 C0 2.66666667 0 1.33333333 0 0 Z " fill="#9D7BC3" transform="translate(242,50)"/>
<path d="M0 0 C0.99 0 1.98 0 3 0 C3 0.66 3 1.32 3 2 C3.556875 2.12375 4.11375 2.2475 4.6875 2.375 C7.22114364 3.05976855 9.57921032 3.99133763 12 5 C12 5.99 12 6.98 12 8 C10.35 8.66 8.7 9.32 7 10 C6.95875 9.4225 6.9175 8.845 6.875 8.25 C5.57146669 4.89805721 2.95907372 3.88877046 0 2 C0 1.34 0 0.68 0 0 Z " fill="#2B2A38" transform="translate(181,336)"/>
<path d="M0 0 C0.625 1.875 0.625 1.875 1 4 C-1.6855594 6.6855594 -4.37621328 7.06049974 -8 8 C-10 6 -10 6 -11 4 C-10.28972656 3.79503906 -9.57945312 3.59007812 -8.84765625 3.37890625 C-7.92855469 3.10949219 -7.00945312 2.84007812 -6.0625 2.5625 C-4.68771484 2.16224609 -4.68771484 2.16224609 -3.28515625 1.75390625 C-1.0597507 1.20973949 -1.0597507 1.20973949 0 0 Z " fill="#5A25C1" transform="translate(263,266)"/>
<path d="M0 0 C0 0.66 0 1.32 0 2 C-3.75960806 5.75960806 -6.75900345 6.58894145 -12 7 C-12 7.66 -12 8.32 -12 9 C-12.99 9 -13.98 9 -15 9 C-15.33 9.99 -15.66 10.98 -16 12 C-16.99 11.34 -17.98 10.68 -19 10 C-16.21251481 8.32626249 -13.41935573 6.66223733 -10.625 5 C-9.8309375 4.52304688 -9.036875 4.04609375 -8.21875 3.5546875 C-7.45820313 3.10351562 -6.69765625 2.65234375 -5.9140625 2.1875 C-4.8614624 1.55908203 -4.8614624 1.55908203 -3.78759766 0.91796875 C-2 0 -2 0 0 0 Z " fill="#AF91D2" transform="translate(291,247)"/>
<path d="M0 0 C0.99 0.33 1.98 0.66 3 1 C2.67 1.66 2.34 2.32 2 3 C3.65 3 5.3 3 7 3 C3.63576723 5.96052484 0.30840713 6.92289822 -4 8 C-4.33 7.34 -4.66 6.68 -5 6 C-4.0625 3.875 -4.0625 3.875 -3 2 C-2.01 2 -1.02 2 0 2 C0 1.34 0 0.68 0 0 Z " fill="#5F1ACC" transform="translate(326,134)"/>
<path d="M0 0 C-2.78394043 1.70050657 -5.57827525 3.38311625 -8.375 5.0625 C-9.1690625 5.54783203 -9.963125 6.03316406 -10.78125 6.53320312 C-11.54179687 6.98759766 -12.30234375 7.44199219 -13.0859375 7.91015625 C-13.7876709 8.33433838 -14.4894043 8.75852051 -15.21240234 9.19555664 C-16.09726318 9.5937561 -16.09726318 9.5937561 -17 10 C-17.66 9.67 -18.32 9.34 -19 9 C-19 8.34 -19 7.68 -19 7 C-18.236875 6.71125 -17.47375 6.4225 -16.6875 6.125 C-13.84970692 5.03730987 -13.84970692 5.03730987 -11 3 C-10.01 3 -9.02 3 -8 3 C-8 2.34 -8 1.68 -8 1 C-2.25 -1.125 -2.25 -1.125 0 0 Z " fill="#B79AD7" transform="translate(265,318)"/>
<path d="M0 0 C3.93673644 1.31224548 6.22719294 2.91910327 9 6 C7.375 7.125 7.375 7.125 5 8 C1.75 7.125 1.75 7.125 -1 6 C-0.67 4.02 -0.34 2.04 0 0 Z " fill="#7A4CB7" transform="translate(235,46)"/>
<path d="M0 0 C1.65 0 3.3 0 5 0 C5 0.66 5 1.32 5 2 C7.475 2.99 7.475 2.99 10 4 C10 4.99 10 5.98 10 7 C8.35 7 6.7 7 5 7 C4.67 6.01 4.34 5.02 4 4 C3.01 4 2.02 4 1 4 C0.67 2.68 0.34 1.36 0 0 Z " fill="#0A0718" transform="translate(60,272)"/>
<path d="M0 0 C3.3 0 6.6 0 10 0 C10.33 0.99 10.66 1.98 11 3 C10.67 3.66 10.34 4.32 10 5 C10.66 5 11.32 5 12 5 C12.33 5.99 12.66 6.98 13 8 C8.27626146 6.37621488 4.05818166 3.89006982 0 1 C0 0.67 0 0.34 0 0 Z " fill="#835BBF" transform="translate(266,120)"/>
<path d="M0 0 C3.10712212 0.78637041 6.09244107 1.63924116 9 3 C10.5625 5.6875 10.5625 5.6875 11 8 C9.3125 8.8125 9.3125 8.8125 7 9 C4.25 6.6875 4.25 6.6875 2 4 C2 3.34 2 2.68 2 2 C1.34 2 0.68 2 0 2 C0 1.34 0 0.68 0 0 Z " fill="#5D2AB3" transform="translate(296,86)"/>
<path d="M0 0 C5.18039987 -0.63175608 7.66878358 0.74182681 11.6796875 3.7109375 C12.11539063 4.13632812 12.55109375 4.56171875 13 5 C13 5.66 13 6.32 13 7 C11.68 6.67 10.36 6.34 9 6 C8.67 6.66 8.34 7.32 8 8 C6.68 7.67 5.36 7.34 4 7 C4 6.34 4 5.68 4 5 C4.66 5 5.32 5 6 5 C3.9927092 1.9890638 3.16115776 1.36983503 0 0 Z " fill="#09081A" transform="translate(175,337)"/>
<path d="M0 0 C-2.16614803 2.30874711 -4.39206608 4.05290181 -7.0625 5.75 C-8.10083984 6.42289062 -8.10083984 6.42289062 -9.16015625 7.109375 C-9.76730469 7.40328125 -10.37445313 7.6971875 -11 8 C-11.66 7.67 -12.32 7.34 -13 7 C-12.67 6.01 -12.34 5.02 -12 4 C-11.34 4 -10.68 4 -10 4 C-10 3.34 -10 2.68 -10 2 C-6.5980513 -0.09350689 -3.94727588 -0.17942163 0 0 Z " fill="#363641" transform="translate(218,328)"/>
<path d="M0 0 C0.99 0.33 1.98 0.66 3 1 C-0.49087093 5.0042343 -2.64951939 6.62671065 -8 7 C-8 7.66 -8 8.32 -8 9 C-9.65 9.33 -11.3 9.66 -13 10 C-9.98112756 6.51668565 -7.43090471 5.20842856 -3 4 C-3 3.34 -3 2.68 -3 2 C-2.01 1.34 -1.02 0.68 0 0 Z " fill="#502397" transform="translate(265,312)"/>
<path d="M0 0 C2.475 0.99 2.475 0.99 5 2 C4.79375 2.598125 4.5875 3.19625 4.375 3.8125 C3.69328085 6.28450846 3.69328085 6.28450846 6 9 C5.236875 8.835 4.47375 8.67 3.6875 8.5 C0.96403764 7.90854604 0.96403764 7.90854604 -2 8 C-1.125 2.25 -1.125 2.25 0 0 Z " fill="#1C192B" transform="translate(67,134)"/>
<path d="M0 0 C-3.18595135 2.63978826 -6.30970546 5.10498388 -10 7 C-10.66 6.67 -11.32 6.34 -12 6 C-11.34 5.01 -10.68 4.02 -10 3 C-10 2.34 -10 1.68 -10 1 C-6.42181037 -1.33958553 -4.07775191 -0.9267618 0 0 Z " fill="#9774C8" transform="translate(344,271)"/>
<path d="M0 0 C0 0.99 0 1.98 0 3 C-2.90600261 4.25664978 -4.79604584 5 -8 5 C-8 6.32 -8 7.64 -8 9 C-10.97 8.505 -10.97 8.505 -14 8 C-11.72402354 5.50447597 -9.39278822 3.93377014 -6.4375 2.3125 C-5.65246094 1.87550781 -4.86742187 1.43851562 -4.05859375 0.98828125 C-2 0 -2 0 0 0 Z " fill="#9F82CD" transform="translate(260,265)"/>
<path d="M0 0 C3.69876091 1.37287342 6.9514476 3.06355453 10.3125 5.125 C11.19550781 5.66382812 12.07851563 6.20265625 12.98828125 6.7578125 C13.65214844 7.16773437 14.31601562 7.57765625 15 8 C12.92446352 8.5534764 11.15634036 9 9 9 C9 8.34 9 7.68 9 7 C8.01 6.67 7.02 6.34 6 6 C6 5.34 6 4.68 6 4 C4.35 4.33 2.7 4.66 1 5 C0.67 3.35 0.34 1.7 0 0 Z " fill="#906DBF" transform="translate(274,70)"/>
<path d="M0 0 C-1.65 0.33 -3.3 0.66 -5 1 C-5.33 1.99 -5.66 2.98 -6 4 C-8.52690371 7.50958848 -11.94962446 8.00651166 -16 9 C-16.33 8.34 -16.66 7.68 -17 7 C-16.01 7 -15.02 7 -14 7 C-14 6.34 -14 5.68 -14 5 C-8.25 2 -8.25 2 -6 2 C-6 1.34 -6 0.68 -6 0 C-3.50907189 -1.24546405 -2.58919267 -0.7767578 0 0 Z " fill="#6C46A7" transform="translate(312,289)"/>
<path d="M0 0 C2.97 1.65 5.94 3.3 9 5 C7.02 5.99 7.02 5.99 5 7 C5 7.66 5 8.32 5 9 C3.35 8.67 1.7 8.34 0 8 C0.33 7.01 0.66 6.02 1 5 C1 3.30032683 0.41223129 1.64892518 0 0 Z " fill="#484752" transform="translate(206,213)"/>
<path d="M0 0 C1.68704193 1.30745749 3.35360035 2.64172029 5 4 C5 4.33 5 4.66 5 5 C7.97 5.495 7.97 5.495 11 6 C11 6.99 11 7.98 11 9 C7.36848887 9 5.89717554 7.98559794 2.8125 6.125 C1.91144531 5.59132813 1.01039063 5.05765625 0.08203125 4.5078125 C-0.60503906 4.01023437 -1.29210937 3.51265625 -2 3 C-2 2.34 -2 1.68 -2 1 C-1.34 0.67 -0.68 0.34 0 0 Z " fill="#9674C3" transform="translate(217,87)"/>
<path d="M0 0 C0.66 0.33 1.32 0.66 2 1 C2 1.99 2 2.98 2 4 C2.66 4 3.32 4 4 4 C3.67 5.32 3.34 6.64 3 8 C0.08482708 6.92598892 -1.77810176 6.22189824 -4 4 C-3.34 4 -2.68 4 -2 4 C-2 3.01 -2 2.02 -2 1 C-1.34 0.67 -0.68 0.34 0 0 Z " fill="#2C2A3A" transform="translate(130,312)"/>
<path d="M0 0 C0 0.66 0 1.32 0 2 C-1.43294498 2.84114171 -2.87154405 3.67265687 -4.3125 4.5 C-5.51326172 5.19609375 -5.51326172 5.19609375 -6.73828125 5.90625 C-9 7 -9 7 -12 7 C-11.34 6.01 -10.68 5.02 -10 4 C-10.66 3.34 -11.32 2.68 -12 2 C-11.01 1.67 -10.02 1.34 -9 1 C-9 1.66 -9 2.32 -9 3 C-8.62875 2.505 -8.2575 2.01 -7.875 1.5 C-5.25305607 -0.59755514 -3.26157528 -0.21743835 0 0 Z " fill="#6D32CC" transform="translate(262,314)"/>
<path d="M0 0 C3.37503669 1.1858237 5.64722731 2.27573689 8 5 C7.67 5.66 7.34 6.32 7 7 C6.34 7 5.68 7 5 7 C5 7.66 5 8.32 5 9 C4.34 9 3.68 9 3 9 C2.87625 8.195625 2.7525 7.39125 2.625 6.5625 C2.315625 5.2940625 2.315625 5.2940625 2 4 C1.34 3.67 0.68 3.34 0 3 C0 2.01 0 1.02 0 0 Z " fill="#2D2B36" transform="translate(91,149)"/>
<path d="M0 0 C2.31 0.33 4.62 0.66 7 1 C7 1.66 7 2.32 7 3 C7.99 3.33 8.98 3.66 10 4 C10 4.66 10 5.32 10 6 C8.68 6.33 7.36 6.66 6 7 C5.34 6.01 4.68 5.02 4 4 C1.44816596 2.79549696 1.44816596 2.79549696 -1 2 C-0.67 1.34 -0.34 0.68 0 0 Z " fill="#5F2AAC" transform="translate(222,90)"/>
<path d="M0 0 C2.97 0.495 2.97 0.495 6 1 C5.01 1.33 4.02 1.66 3 2 C3 2.66 3 3.32 3 4 C-2.75 7 -2.75 7 -5 7 C-5.33 5.02 -5.66 3.04 -6 1 C-4 2 -2 3 0 4 C0 2.68 0 1.36 0 0 Z " fill="#474751" transform="translate(199,335)"/>
<path d="M0 0 C3.375 -0.125 3.375 -0.125 7 0 C7.66 0.66 8.32 1.32 9 2 C12.58343976 2.16677282 12.58343976 2.16677282 16 2 C15.67 2.66 15.34 3.32 15 4 C13.25034642 4.05429959 11.50020213 4.09292823 9.75 4.125 C8.77546875 4.14820313 7.8009375 4.17140625 6.796875 4.1953125 C3.9803502 3.99862781 2.39050964 3.44568916 0 2 C0 1.34 0 0.68 0 0 Z " fill="#5F2BA9" transform="translate(286,130)"/>
<path d="M0 0 C0.99 0 1.98 0 3 0 C3 0.66 3 1.32 3 2 C4.32 2 5.64 2 7 2 C6.67 2.99 6.34 3.98 6 5 C1.71 5 -2.58 5 -7 5 C-7 4.34 -7 3.68 -7 3 C-4.36 2.67 -1.72 2.34 1 2 C0.67 1.34 0.34 0.68 0 0 Z " fill="#611ECE" transform="translate(231,50)"/>
<path d="M0 0 C1.65 1.65 3.3 3.3 5 5 C3.625 6.5 3.625 6.5 2 8 C1.34 8 0.68 8 0 8 C0 7.34 0 6.68 0 6 C-2.31 6 -4.62 6 -7 6 C-7 5.34 -7 4.68 -7 4 C-5.02 4 -3.04 4 -1 4 C-0.67 2.68 -0.34 1.36 0 0 Z " fill="#2B2A3A" transform="translate(218,320)"/>
<path d="M0 0 C0.33 0.99 0.66 1.98 1 3 C1.99 2.67 2.98 2.34 4 2 C4.2475 2.639375 4.495 3.27875 4.75 3.9375 C5.81562433 6.18741541 5.81562433 6.18741541 8.125 6.75 C8.74375 6.8325 9.3625 6.915 10 7 C10 7.66 10 8.32 10 9 C5.69235185 7.43358249 1.93828536 5.31663844 -2 3 C-1.34 2.67 -0.68 2.34 0 2 C0 1.34 0 0.68 0 0 Z " fill="#403F4A" transform="translate(103,299)"/>
<path d="M0 0 C1.485 0.99 1.485 0.99 3 2 C5.32108669 2.70812814 7.65377147 3.38024152 10 4 C9.67 4.66 9.34 5.32 9 6 C2.47692308 5.38461538 2.47692308 5.38461538 0.0625 3.4375 C-0.288125 2.963125 -0.63875 2.48875 -1 2 C-0.67 1.34 -0.34 0.68 0 0 Z M14 1 C14 1.66 14 2.32 14 3 C12.68 3.33 11.36 3.66 10 4 C10 3.34 10 2.68 10 2 C12 1 12 1 14 1 Z " fill="#0B0917" transform="translate(175,291)"/>
<path d="M0 0 C0 0.66 0 1.32 0 2 C0.66 2 1.32 2 2 2 C2 2.66 2 3.32 2 4 C1.01 4 0.02 4 -1 4 C-0.67 4.99 -0.34 5.98 0 7 C-3.37503669 5.8141763 -5.64722731 4.72426311 -8 2 C-2 0 -2 0 0 0 Z " fill="#464354" transform="translate(177,176)"/>
<path d="M0 0 C2.64 0 5.28 0 8 0 C8 0.66 8 1.32 8 2 C8.99 2.33 9.98 2.66 11 3 C11.6875 5.0625 11.6875 5.0625 12 7 C7.39104317 5.68315519 3.85859765 3.84801255 0 1 C0 0.67 0 0.34 0 0 Z " fill="#4B4A57" transform="translate(67,121)"/>
<path d="M0 0 C-0.33 2.31 -0.66 4.62 -1 7 C-3.40133271 5.39911152 -5.702779 3.74271938 -8 2 C-4.77208445 -0.1519437 -3.71599191 -0.20086443 0 0 Z " fill="#36363D" transform="translate(99,96)"/>
<path d="M0 0 C0.66 0.66 1.32 1.32 2 2 C4.01954441 1.66179847 4.01954441 1.66179847 6 1 C6.66 1 7.32 1 8 1 C8 1.66 8 2.32 8 3 C6.57086153 3.72505558 5.13129342 4.42958435 3.6875 5.125 C2.88699219 5.51945312 2.08648437 5.91390625 1.26171875 6.3203125 C0.51535156 6.54460938 -0.23101562 6.76890625 -1 7 C-1.99 6.34 -2.98 5.68 -4 5 C-3.34 4.34 -2.68 3.68 -2 3 C-2 2.34 -2 1.68 -2 1 C-1.34 0.67 -0.68 0.34 0 0 Z " fill="#0A0817" transform="translate(180,55)"/>
<path d="M0 0 C1.36125 0.37125 1.36125 0.37125 2.75 0.75 C2.75 1.41 2.75 2.07 2.75 2.75 C-0.00924185 4.55411967 -1.13972103 4.7627245 -4.5 4.375 C-5.4075 4.16875 -6.315 3.9625 -7.25 3.75 C-4.05 -0.31153846 -4.05 -0.31153846 0 0 Z " fill="#6F2FCC" transform="translate(299.25,288.25)"/>
<path d="M0 0 C0.721875 0.103125 1.44375 0.20625 2.1875 0.3125 C1.8575 1.9625 1.5275 3.6125 1.1875 5.3125 C-0.4625 4.9825 -2.1125 4.6525 -3.8125 4.3125 C-3.8125 4.9725 -3.8125 5.6325 -3.8125 6.3125 C-5.1325 5.9825 -6.4525 5.6525 -7.8125 5.3125 C-3.50480769 0.38942308 -3.50480769 0.38942308 0 0 Z " fill="#5F1FD4" transform="translate(285.8125,261.6875)"/>
<path d="M0 0 C0.66 0.33 1.32 0.66 2 1 C1.8125 2.8125 1.8125 2.8125 1 5 C-1.5625 6.75 -1.5625 6.75 -4 8 C-4.99 7.01 -5.98 6.02 -7 5 C-6.34 5 -5.68 5 -5 5 C-5 4.34 -5 3.68 -5 3 C-2.625 1.3125 -2.625 1.3125 0 0 Z " fill="#6739BD" transform="translate(296,244)"/>
<path d="M0 0 C0 0.66 0 1.32 0 2 C1.65 2 3.3 2 5 2 C3.68 2.33 2.36 2.66 1 3 C1 3.99 1 4.98 1 6 C0.34 6 -0.32 6 -1 6 C-1 5.34 -1 4.68 -1 4 C-2.32 3.67 -3.64 3.34 -5 3 C-5 3.66 -5 4.32 -5 5 C-6.32 4.67 -7.64 4.34 -9 4 C-2.25 0 -2.25 0 0 0 Z " fill="#4D4B58" transform="translate(81,105)"/>
<path d="M0 0 C1.32 0.33 2.64 0.66 4 1 C4 1.66 4 2.32 4 3 C4.61875 3.12375 5.2375 3.2475 5.875 3.375 C8 4 8 4 10 6 C10.99 6.33 11.98 6.66 13 7 C12.67 7.66 12.34 8.32 12 9 C6.52386331 7.81887248 3.6905212 6.47335903 0 2 C0 1.34 0 0.68 0 0 Z " fill="#57279E" transform="translate(316,97)"/>
<path d="M0 0 C2.475 0.99 2.475 0.99 5 2 C5 1.34 5 0.68 5 0 C6.32 0.33 7.64 0.66 9 1 C9 2.65 9 4.3 9 6 C5.59687262 4.94124926 2.98646769 3.99097846 0 2 C0 1.34 0 0.68 0 0 Z " fill="#0A0A19" transform="translate(185,336)"/>
<path d="M0 0 C0.66 0.33 1.32 0.66 2 1 C1.67 1.99 1.34 2.98 1 4 C1.99 4 2.98 4 4 4 C1.47211993 6.79872437 -0.20411134 8.45773019 -4 9 C-4.33 7.35 -4.66 5.7 -5 4 C-4.01 3.67 -3.02 3.34 -2 3 C-1.34 2.01 -0.68 1.02 0 0 Z " fill="#8D5ECF" transform="translate(278,303)"/>
<path d="M0 0 C0.66 0.33 1.32 0.66 2 1 C2 1.33 2 1.66 2 2 C2.66 2.33 3.32 2.66 4 3 C2.02 4.32 0.04 5.64 -2 7 C-4 6 -4 6 -5 4 C-3.36587557 2.29159719 -2.13093906 1.06546953 0 0 Z " fill="#8D64BE" transform="translate(288,299)"/>
<path d="M0 0 C0.33 1.32 0.66 2.64 1 4 C2.32 4.33 3.64 4.66 5 5 C4.67 5.99 4.34 6.98 4 8 C0.62496331 6.8141763 -1.64722731 5.72426311 -4 3 C-3.01 2.34 -2.02 1.68 -1 1 C-0.67 0.67 -0.34 0.34 0 0 Z " fill="#32303D" transform="translate(89,288)"/>
<path d="M0 0 C0.33 0 0.66 0 1 0 C1 6.93 1 13.86 1 21 C-0.65 21.66 -2.3 22.32 -4 23 C-3.51917969 22.54109375 -3.03835938 22.0821875 -2.54296875 21.609375 C-0.20598469 17.65720955 -0.42921637 13.76525629 -0.3125 9.25 C-0.27833984 8.36183594 -0.24417969 7.47367188 -0.20898438 6.55859375 C-0.12671286 4.37252197 -0.05749828 2.18684049 0 0 Z " fill="#B69ADE" transform="translate(295,224)"/>
<path d="M0 0 C3.63 0 7.26 0 11 0 C10.01 0.495 10.01 0.495 9 1 C7.86649466 3.01669827 7.86649466 3.01669827 7 5 C3.535 3.02 3.535 3.02 0 1 C0 0.67 0 0.34 0 0 Z " fill="#282637" transform="translate(118,311)"/>
<path d="M0 0 C1.0625 1.875 1.0625 1.875 2 4 C1 6 1 6 -0.84765625 6.6328125 C-1.94400391 6.87644531 -1.94400391 6.87644531 -3.0625 7.125 C-3.79597656 7.29257812 -4.52945312 7.46015625 -5.28515625 7.6328125 C-5.85105469 7.75398438 -6.41695313 7.87515625 -7 8 C-6.67 7.34 -6.34 6.68 -6 6 C-5.34 6 -4.68 6 -4 6 C-3.896875 5.38125 -3.79375 4.7625 -3.6875 4.125 C-3 2 -3 2 0 0 Z " fill="#6331A8" transform="translate(283,301)"/>
<path d="M0 0 C0 1.32 0 2.64 0 4 C-2.91482778 4.80967438 -4.46113217 5.21845993 -7.3125 4.0625 C-7.869375 3.711875 -8.42625 3.36125 -9 3 C-5.92807025 0.26939578 -4.09590633 -0.34132553 0 0 Z " fill="#46454C" transform="translate(227,180)"/>
<path d="M0 0 C3.99500618 1.3697164 6.80009492 3.25722422 10 6 C7 7 7 7 3.875 5.8125 C1 4 1 4 0.125 1.8125 C0.08375 1.214375 0.0425 0.61625 0 0 Z " fill="#3D3C43" transform="translate(72,137)"/>
<path d="M0 0 C0.33 0 0.66 0 1 0 C1 3.3 1 6.6 1 10 C-0.65 9.67 -2.3 9.34 -4 9 C-4 7.35 -4 5.7 -4 4 C-3.01 4 -2.02 4 -1 4 C-0.67 2.68 -0.34 1.36 0 0 Z " fill="#08070F" transform="translate(98,128)"/>
<path d="M0 0 C7.115727 0.97032641 7.115727 0.97032641 10 3 C10.75 5.125 10.75 5.125 11 7 C6.89188572 5.55007731 3.53144334 3.54592427 0 1 C0 0.67 0 0.34 0 0 Z " fill="#A480C8" transform="translate(255,113)"/>
<path d="M0 0 C1.60781893 0.7631861 3.21113138 1.53587058 4.8125 2.3125 C5.70582031 2.74175781 6.59914062 3.17101562 7.51953125 3.61328125 C9.78931933 4.88221789 11.29248171 6.06556898 13 8 C10.6875 8.1875 10.6875 8.1875 8 8 C6.5 6.6875 6.5 6.6875 5 5 C4.113125 4.484375 3.22625 3.96875 2.3125 3.4375 C1.549375 2.963125 0.78625 2.48875 0 2 C0 1.34 0 0.68 0 0 Z " fill="#56555A" transform="translate(150,275)"/>
<path d="M0 0 C0.33 0.66 0.66 1.32 1 2 C2.175625 2.4640625 2.175625 2.4640625 3.375 2.9375 C5.95982105 3.98373709 7.2046169 4.92113535 9 7 C3.375 7.25 3.375 7.25 0 5 C-0.1875 2.375 -0.1875 2.375 0 0 Z " fill="#46444D" transform="translate(98,242)"/>
<path d="M0 0 C0.66 0.33 1.32 0.66 2 1 C2.33 2.32 2.66 3.64 3 5 C-1.455 5.495 -1.455 5.495 -6 6 C-5.67 4.68 -5.34 3.36 -5 2 C-4.34 2 -3.68 2 -3 2 C-2.01 1.34 -1.02 0.68 0 0 Z " fill="#0C0A17" transform="translate(199,211)"/>
<path d="M0 0 C0.33 0.66 0.66 1.32 1 2 C2.65 2 4.3 2 6 2 C6.33 3.98 6.66 5.96 7 8 C3.56404834 6.47291037 0.88087546 4.40072955 -2 2 C-1.34 2 -0.68 2 0 2 C0 1.34 0 0.68 0 0 Z " fill="#3B3B41" transform="translate(218,204)"/>
<path d="M0 0 C0.99 0.66 1.98 1.32 3 2 C4.9896995 2.39013716 6.99019869 2.73202649 9 3 C8.01 3.495 8.01 3.495 7 4 C7.33 4.99 7.66 5.98 8 7 C4.40608886 5.66511872 1.24509304 4.03977277 -2 2 C-1.34 1.34 -0.68 0.68 0 0 Z " fill="#44424C" transform="translate(193,190)"/>
<path d="M0 0 C3.3 0 6.6 0 10 0 C6.31034483 3.68965517 6.31034483 3.68965517 3 4 C2.01 3.34 1.02 2.68 0 2 C0 1.34 0 0.68 0 0 Z " fill="#8A6DB6" transform="translate(291,134)"/>
<path d="M0 0 C0.99 0.66 1.98 1.32 3 2 C-0.51187196 4.40814077 -2.72656908 5.36629408 -7 5 C-6.67 4.01 -6.34 3.02 -6 2 C-3.125 0.6875 -3.125 0.6875 0 0 Z " fill="#6628BF" transform="translate(301,128)"/>
<path d="M0 0 C2.97 0.495 2.97 0.495 6 1 C6.33 2.98 6.66 4.96 7 7 C3.62496331 5.8141763 1.35277269 4.72426311 -1 2 C-0.01 2 0.98 2 2 2 C1.34 1.34 0.68 0.68 0 0 Z " fill="#9068C6" transform="translate(248,106)"/>
<path d="M0 0 C3.39914975 1.13304992 4.05254451 2.12518475 6 5 C1.94568308 6.15837626 -0.21812119 5.83691257 -4 4 C-2.68 2.68 -1.36 1.36 0 0 Z " fill="#5B26B7" transform="translate(277,73)"/>
<path d="M0 0 C2.875 -0.1875 2.875 -0.1875 6 0 C6.66 0.99 7.32 1.98 8 3 C10.05003955 4.19232613 10.05003955 4.19232613 12 5 C9.44345185 5.95582656 8.39658231 6.17802782 5.859375 5.0390625 C5.16328125 4.57242187 4.4671875 4.10578125 3.75 3.625 C3.04359375 3.16351563 2.3371875 2.70203125 1.609375 2.2265625 C1.07828125 1.82179688 0.5471875 1.41703125 0 1 C0 0.67 0 0.34 0 0 Z " fill="#4B4A53" transform="translate(159,336)"/>
<path d="M0 0 C1.98 0 3.96 0 6 0 C2.81404865 2.63978826 -0.30970546 5.10498388 -4 7 C-4.66 6.67 -5.32 6.34 -6 6 C-6 5.01 -6 4.02 -6 3 C-4.02 2.67 -2.04 2.34 0 2 C0 1.34 0 0.68 0 0 Z " fill="#9D80CB" transform="translate(326,278)"/>
<path d="M0 0 C-1.70625501 2.78388975 -2.47626739 3.85384206 -5.6875 4.75 C-6.8321875 4.87375 -6.8321875 4.87375 -8 5 C-6.19780722 -0.02039417 -5.34443412 -1.60333024 0 0 Z " fill="#815CB1" transform="translate(343,124)"/>
<path d="M0 0 C1.051875 0.309375 2.10375 0.61875 3.1875 0.9375 C6.12752396 1.75685094 9.00161623 2.45483931 12 3 C11.67 3.99 11.34 4.98 11 6 C9.3501725 5.57781184 7.70516335 5.13675575 6.0625 4.6875 C5.14597656 4.44386719 4.22945313 4.20023437 3.28515625 3.94921875 C2.53105469 3.63597656 1.77695313 3.32273437 1 3 C0.67 2.01 0.34 1.02 0 0 Z " fill="#6128AD" transform="translate(254,110)"/>
<path d="M0 0 C1.98270912 0.95098266 3.96108379 1.91100703 5.9375 2.875 C7.03964844 3.40867187 8.14179688 3.94234375 9.27734375 4.4921875 C12 6 12 6 13 8 C11.68 8 10.36 8 9 8 C8.67 7.34 8.34 6.68 8 6 C6.05396726 5.40929986 6.05396726 5.40929986 4 5 C3.34 4.67 2.68 4.34 2 4 C2 3.34 2 2.68 2 2 C1.34 2 0.68 2 0 2 C0 1.34 0 0.68 0 0 Z " fill="#9370BC" transform="translate(320,98)"/>
<path d="M0 0 C0 0.66 0 1.32 0 2 C-3.22791555 4.1519437 -4.28400809 4.20086443 -8 4 C-2.7826087 0 -2.7826087 0 0 0 Z M-10 4 C-9.01 4.33 -8.02 4.66 -7 5 C-7.99 5.99 -8.98 6.98 -10 8 C-10.66 7.67 -11.32 7.34 -12 7 C-11.34 6.01 -10.68 5.02 -10 4 Z " fill="#5C1EC5" transform="translate(270,307)"/>
<path d="M0 0 C10.55808656 1.74259681 10.55808656 1.74259681 15 5 C12.24022114 6.37988943 10.98021199 5.62402826 8.0625 4.75 C6.74958984 4.37101562 6.74958984 4.37101562 5.41015625 3.984375 C2.95383848 2.98114635 1.70251753 2.00031763 0 0 Z " fill="#0A071D" transform="translate(111,263)"/>
<path d="M0 0 C3.37503669 1.1858237 5.64722731 2.27573689 8 5 C6.02 5.99 6.02 5.99 4 7 C1.49962266 4.82575883 0.56371414 3.26954202 0 0 Z " fill="#7C54B5" transform="translate(305,89)"/>
<path d="M0 0 C1.32 0.66 2.64 1.32 4 2 C-1.2734375 5.22265625 -1.2734375 5.22265625 -3 6 C-3.66 5.67 -4.32 5.34 -5 5 C-3.35 3.35 -1.7 1.7 0 0 Z " fill="#9B7CC3" transform="translate(270,311)"/>
<path d="M0 0 C5.875 3.625 5.875 3.625 7 7 C4.03 6.505 4.03 6.505 1 6 C0.67 4.02 0.34 2.04 0 0 Z " fill="#302E38" transform="translate(144,271)"/>
<path d="M0 0 C2.97 0 5.94 0 9 0 C9 0.99 9 1.98 9 3 C6.36 3 3.72 3 1 3 C0.67 2.01 0.34 1.02 0 0 Z " fill="#581DC3" transform="translate(272,261)"/>
<path d="M0 0 C0.66 0.33 1.32 0.66 2 1 C-1.48720616 5.3590077 -4.72760915 5.94552183 -10 7 C-7.20283196 3.70921407 -3.80471422 1.93694542 0 0 Z " fill="#A78CD0" transform="translate(270,258)"/>
<path d="M0 0 C2.4375 0.8125 2.4375 0.8125 5 2 C5.33 2.99 5.66 3.98 6 5 C5.01 5.33 4.02 5.66 3 6 C2.67 5.67 2.34 5.34 2 5 C1.01 5 0.02 5 -1 5 C-0.67 3.35 -0.34 1.7 0 0 Z " fill="#090713" transform="translate(113,254)"/>
<path d="M0 0 C0.99 0.33 1.98 0.66 3 1 C2.67 1.66 2.34 2.32 2 3 C4.97 3.495 4.97 3.495 8 4 C7.67 4.99 7.34 5.98 7 7 C4.03 5.35 1.06 3.7 -2 2 C-1.34 1.34 -0.68 0.68 0 0 Z " fill="#59595C" transform="translate(92,134)"/>
<path d="M0 0 C0.33 0.99 0.66 1.98 1 3 C1.66 3 2.32 3 3 3 C3 2.34 3 1.68 3 1 C3.66 1.33 4.32 1.66 5 2 C4.34 3.32 3.68 4.64 3 6 C0.5625 5.1875 0.5625 5.1875 -2 4 C-2.33 3.01 -2.66 2.02 -3 1 C-2.01 0.67 -1.02 0.34 0 0 Z " fill="#33323A" transform="translate(64,115)"/>
<path d="M0 0 C2.97 0.33 5.94 0.66 9 1 C9.66 2.65 10.32 4.3 11 6 C10.01 6.495 10.01 6.495 9 7 C9 6.34 9 5.68 9 5 C8.34 5 7.68 5 7 5 C7 4.34 7 3.68 7 3 C4.69 2.34 2.38 1.68 0 1 C0 0.67 0 0.34 0 0 Z " fill="#632CB5" transform="translate(219,41)"/>
<path d="M0 0 C0.33 0 0.66 0 1 0 C1 3.96 1 7.92 1 12 C1.99 12.33 2.98 12.66 4 13 C3.01 14.485 3.01 14.485 2 16 C1.34 16 0.68 16 0 16 C0 10.72 0 5.44 0 0 Z " fill="#5B329A" transform="translate(244,312)"/>
<path d="M0 0 C3.99500618 1.3697164 6.80009492 3.25722422 10 6 C3.52443609 5.38909774 3.52443609 5.38909774 1.0625 3.5625 C0 2 0 2 0 0 Z " fill="#515155" transform="translate(163,283)"/>
<path d="M0 0 C0.66 0.33 1.32 0.66 2 1 C1.68289062 1.55171875 1.36578125 2.1034375 1.0390625 2.671875 C-0.12709975 5.28477989 -0.40045711 7.40579002 -0.625 10.25 C-0.69976562 11.14203125 -0.77453125 12.0340625 -0.8515625 12.953125 C-0.90054688 13.62859375 -0.94953125 14.3040625 -1 15 C-1.33 15 -1.66 15 -2 15 C-2.05386629 12.87527424 -2.09273071 10.75016348 -2.125 8.625 C-2.14820313 7.44164062 -2.17140625 6.25828125 -2.1953125 5.0390625 C-2 2 -2 2 0 0 Z " fill="#643EA7" transform="translate(246,273)"/>
<path d="M0 0 C0.66 0 1.32 0 2 0 C2 1.32 2 2.64 2 4 C1.01 4.66 0.02 5.32 -1 6 C-1.57993699 8.19454681 -1.57993699 8.19454681 -1.6875 10.625 C-1.75324219 11.44226563 -1.81898438 12.25953125 -1.88671875 13.1015625 C-1.92410156 13.72804688 -1.96148437 14.35453125 -2 15 C-2.33 15 -2.66 15 -3 15 C-3.57042254 4.11971831 -3.57042254 4.11971831 0 0 Z " fill="#5828AC" transform="translate(248,273)"/>
<path d="M0 0 C-0.66 1.32 -1.32 2.64 -2 4 C-2 3.34 -2 2.68 -2 2 C-3.65 2.66 -5.3 3.32 -7 4 C-7 3.01 -7 2.02 -7 1 C-7.33 0.34 -7.66 -0.32 -8 -1 C-4.37673261 -2.2077558 -3.35853631 -1.54311128 0 0 Z " fill="#6221D0" transform="translate(272,266)"/>
<path d="M0 0 C3.99500618 1.3697164 6.80009492 3.25722422 10 6 C9.01 6.33 8.02 6.66 7 7 C1.26229508 3.78688525 1.26229508 3.78688525 0 0 Z " fill="#5F5E64" transform="translate(220,222)"/>
<path d="M0 0 C3 1 6 2 9 3 C9 4.32 9 5.64 9 7 C5.07353523 5.69117841 2.72225079 4.1255472 0 1 C0 0.67 0 0.34 0 0 Z " fill="#2D2D39" transform="translate(207,199)"/>
<path d="M0 0 C0 1.32 0 2.64 0 4 C-7.75 3.125 -7.75 3.125 -10 2 C-6.3558226 -0.4294516 -4.28758728 -0.16179575 0 0 Z " fill="#855CC5" transform="translate(310,144)"/>
<path d="M0 0 C2.9719385 1.12451727 5.33440687 2.22293791 8 4 C7.67 4.99 7.34 5.98 7 7 C6.01 6.67 5.02 6.34 4 6 C4 5.01 4 4.02 4 3 C2.68 2.67 1.36 2.34 0 2 C0 1.34 0 0.68 0 0 Z " fill="#947BB3" transform="translate(333,106)"/>
<path d="M0 0 C4.31392226 0.4793247 6.16569547 1.7457985 9 5 C5.25 6.125 5.25 6.125 3 5 C3 4.01 3 3.02 3 2 C2.01 1.67 1.02 1.34 0 1 C0 0.67 0 0.34 0 0 Z " fill="#57299C" transform="translate(253,59)"/>
<path d="M0 0 C2.475 0.99 2.475 0.99 5 2 C4.34 2.66 3.68 3.32 3 4 C2.01 4 1.02 4 0 4 C-0.33 4.66 -0.66 5.32 -1 6 C-1.99 5.34 -2.98 4.68 -4 4 C-4 3.34 -4 2.68 -4 2 C-2.68 2 -1.36 2 0 2 C0 1.34 0 0.68 0 0 Z " fill="#353340" transform="translate(133,265)"/>
<path d="M0 0 C2.4375 0.75 2.4375 0.75 5 2 C5.8125 4.125 5.8125 4.125 6 6 C4.02 5.34 2.04 4.68 0 4 C0 2.66666667 0 1.33333333 0 0 Z " fill="#414049" transform="translate(185,185)"/>
<path d="M0 0 C0.99 0.33 1.98 0.66 3 1 C3 1.66 3 2.32 3 3 C4.32 3.66 5.64 4.32 7 5 C5.1875 5.625 5.1875 5.625 3 6 C2.01 5.34 1.02 4.68 0 4 C0 3.34 0 2.68 0 2 C-0.66 1.67 -1.32 1.34 -2 1 C-1.34 0.67 -0.68 0.34 0 0 Z " fill="#5F2BA6" transform="translate(278,123)"/>
<path d="M0 0 C2.31 0.66 4.62 1.32 7 2 C7 2.66 7 3.32 7 4 C7.99 4.33 8.98 4.66 10 5 C8 6 8 6 5 5.3125 C2 4 2 4 0.625 1.875 C0.41875 1.25625 0.2125 0.6375 0 0 Z " fill="#6E48A0" transform="translate(241,103)"/>
<path d="M0 0 C1.32 0.33 2.64 0.66 4 1 C3.67 2.32 3.34 3.64 3 5 C1.68 5 0.36 5 -1 5 C-1.33 4.01 -1.66 3.02 -2 2 C-1.34 2 -0.68 2 0 2 C0 1.34 0 0.68 0 0 Z " fill="#2C2935" transform="translate(173,340)"/>
<path d="M0 0 C0.33 1.65 0.66 3.3 1 5 C-1.95409701 3.62845496 -4.44008376 2.01136276 -7 0 C-4.3333581 -1.33332095 -2.83319697 -0.67102033 0 0 Z " fill="#34323E" transform="translate(158,331)"/>
<path d="M0 0 C-1.26418246 0.69965443 -2.53665402 1.38434763 -3.8125 2.0625 C-4.52019531 2.44535156 -5.22789062 2.82820313 -5.95703125 3.22265625 C-8 4 -8 4 -11 3 C-7.17860188 -0.1390056 -4.83859894 -1.61286631 0 0 Z " fill="#6522CB" transform="translate(272,304)"/>
<path d="M0 0 C1.98 0 3.96 0 6 0 C5.67 0.99 5.34 1.98 5 3 C3.02 3.33 1.04 3.66 -1 4 C-0.67 2.68 -0.34 1.36 0 0 Z " fill="#6947A0" transform="translate(315,283)"/>
<path d="M0 0 C3.59391114 1.33488128 6.75490696 2.96022723 10 5 C6.25 6.125 6.25 6.125 4 5 C4 4.34 4 3.68 4 3 C2.68 2.67 1.36 2.34 0 2 C0 1.34 0 0.68 0 0 Z " fill="#605F69" transform="translate(118,256)"/>
<path d="M0 0 C1.32 0.33 2.64 0.66 4 1 C3.01 2.485 3.01 2.485 2 4 C1.34 3.67 0.68 3.34 0 3 C-0.66 4.32 -1.32 5.64 -2 7 C-2.66 6.67 -3.32 6.34 -4 6 C-2.68 4.02 -1.36 2.04 0 0 Z " fill="#5828AD" transform="translate(272,258)"/>
<path d="M0 0 C0.33 0 0.66 0 1 0 C1.03738281 0.75925781 1.07476562 1.51851563 1.11328125 2.30078125 C1.17902344 3.29464844 1.24476562 4.28851563 1.3125 5.3125 C1.37050781 6.29863281 1.42851563 7.28476562 1.48828125 8.30078125 C2.04622813 11.24384457 2.68540132 12.18182999 5 14 C2 14 2 14 0 13 C0 8.71 0 4.42 0 0 Z " fill="#706F74" transform="translate(51,259)"/>
<path d="M0 0 C0.99 0.33 1.98 0.66 3 1 C3 3.31 3 5.62 3 8 C0.525 7.01 0.525 7.01 -2 6 C-1.34 5.01 -0.68 4.02 0 3 C0 2.01 0 1.02 0 0 Z " fill="#3C3B40" transform="translate(227,207)"/>
<path d="M0 0 C2.91517292 1.07401108 4.77810176 1.77810176 7 4 C4.6875 4.6875 4.6875 4.6875 2 5 C0.1875 3.5625 0.1875 3.5625 -1 2 C-0.67 1.34 -0.34 0.68 0 0 Z " fill="#35343C" transform="translate(59,129)"/>
<path d="M0 0 C0.99 0 1.98 0 3 0 C3 0.66 3 1.32 3 2 C4.65 2.33 6.3 2.66 8 3 C8 3.66 8 4.32 8 5 C5.69 4.67 3.38 4.34 1 4 C0.67 2.68 0.34 1.36 0 0 Z " fill="#5F2BAA" transform="translate(265,116)"/>
<path d="M0 0 C0.66 0.33 1.32 0.66 2 1 C1.34 2.65 0.68 4.3 0 6 C-1.32 5.34 -2.64 4.68 -4 4 C-4.33 4.66 -4.66 5.32 -5 6 C-5.66 5.34 -6.32 4.68 -7 4 C-1.7265625 0.77734375 -1.7265625 0.77734375 0 0 Z " fill="#717079" transform="translate(172,58)"/>
<path d="M0 0 C0.66 0.33 1.32 0.66 2 1 C1.01 1.66 0.02 2.32 -1 3 C-2.19232613 5.05003955 -2.19232613 5.05003955 -3 7 C-3.66 6.01 -4.32 5.02 -5 4 C-5.66 3.67 -6.32 3.34 -7 3 C-4.69631264 1.93347808 -2.35981813 0.93578995 0 0 Z " fill="#574A74" transform="translate(214,35)"/>
<path d="M0 0 C1.625 2 1.625 2 3 4 C0.6875 4.6875 0.6875 4.6875 -2 5 C-3.8125 3.5625 -3.8125 3.5625 -5 2 C-2 0 -2 0 0 0 Z " fill="#24222E" transform="translate(118,306)"/>
<path d="M0 0 C0.99 0.33 1.98 0.66 3 1 C-2 6 -2 6 -4.625 6.125 C-5.40875 6.08375 -6.1925 6.0425 -7 6 C-4.74259377 3.66475218 -2.7194239 1.81294927 0 0 Z " fill="#6228BC" transform="translate(336,128)"/>
<path d="M0 0 C1.69752187 0.25245197 3.38471545 0.57645775 5.0625 0.9375 C5.98160156 1.13214844 6.90070313 1.32679687 7.84765625 1.52734375 C8.91306641 1.76130859 8.91306641 1.76130859 10 2 C8.73046875 3.51953125 8.73046875 3.51953125 7 5 C3.3125 4.6875 3.3125 4.6875 0 4 C-0.33 3.01 -0.66 2.02 -1 1 C-0.67 0.67 -0.34 0.34 0 0 Z " fill="#7F4FC6" transform="translate(321,115)"/>
<path d="M0 0 C2.875 -0.125 2.875 -0.125 6 0 C8 2 8 2 8 5 C4.62496331 3.8141763 2.35277269 2.72426311 0 0 Z " fill="#A17CC6" transform="translate(235,101)"/>
<path d="M0 0 C1.67542976 0.28604898 3.34385343 0.61781233 5 1 C4.01 2.32 3.02 3.64 2 5 C0.68 4.67 -0.64 4.34 -2 4 C-1.34 4 -0.68 4 0 4 C-0.33 3.01 -0.66 2.02 -1 1 C-0.67 0.67 -0.34 0.34 0 0 Z " fill="#0C0B13" transform="translate(91,99)"/>
<path d="M0 0 C1.32 0.33 2.64 0.66 4 1 C4 1.66 4 2.32 4 3 C4.66 3.33 5.32 3.66 6 4 C3.6875 4.6875 3.6875 4.6875 1 5 C-0.8125 3.5625 -0.8125 3.5625 -2 2 C-1.34 2 -0.68 2 0 2 C0 1.34 0 0.68 0 0 Z " fill="#6320C8" transform="translate(222,43)"/>
<path d="M0 0 C2.97 0.495 2.97 0.495 6 1 C6 2.32 6 3.64 6 5 C3.5625 4.1875 3.5625 4.1875 1 3 C0.67 2.01 0.34 1.02 0 0 Z " fill="#28272F" transform="translate(145,326)"/>
<path d="M0 0 C2.6875 0.875 2.6875 0.875 5 2 C4.67 2.99 4.34 3.98 4 5 C3.34 4.67 2.68 4.34 2 4 C2 3.34 2 2.68 2 2 C1.34 2 0.68 2 0 2 C0 2.66 0 3.32 0 4 C-0.99 4 -1.98 4 -3 4 C-3 3.34 -3 2.68 -3 2 C-2.01 1.34 -1.02 0.68 0 0 Z " fill="#0A081D" transform="translate(105,290)"/>
<path d="M0 0 C2.97 0 5.94 0 9 0 C8.01 1.485 8.01 1.485 7 3 C4.0625 2.625 4.0625 2.625 1 2 C0.67 1.34 0.34 0.68 0 0 Z " fill="#090716" transform="translate(69,280)"/>
<path d="M0 0 C0 0.66 0 1.32 0 2 C-1.62626404 3.38232443 -3.2925002 4.71937515 -5 6 C-5.66 5.67 -6.32 5.34 -7 5 C-6 2 -6 2 -4.0625 0.8125 C-2 0 -2 0 0 0 Z " fill="#9B7ECA" transform="translate(291,247)"/>
<path d="M0 0 C0.66 0 1.32 0 2 0 C2.66 1.65 3.32 3.3 4 5 C2.02 5.99 2.02 5.99 0 7 C-0.66 6.34 -1.32 5.68 -2 5 C-1.34 4.67 -0.68 4.34 0 4 C0 2.68 0 1.36 0 0 Z " fill="#0D0B17" transform="translate(105,249)"/>
<path d="M0 0 C0 0.99 0 1.98 0 3 C-1.32 3 -2.64 3 -4 3 C-4 5.64 -4 8.28 -4 11 C-4.33 11 -4.66 11 -5 11 C-5.08096803 9.54257537 -5.13917774 8.08387193 -5.1875 6.625 C-5.22230469 5.81289062 -5.25710938 5.00078125 -5.29296875 4.1640625 C-5.19628906 3.44992188 -5.09960938 2.73578125 -5 2 C-2 0 -2 0 0 0 Z " fill="#A786CE" transform="translate(300,147)"/>
<path d="M0 0 C0.66 0 1.32 0 2 0 C2.433125 0.9590625 2.433125 0.9590625 2.875 1.9375 C3.82823451 4.15206079 3.82823451 4.15206079 6 5 C5.67 5.99 5.34 6.98 5 8 C4.34 8 3.68 8 3 8 C2.71125 7.38125 2.4225 6.7625 2.125 6.125 C1.06279958 3.86674235 1.06279958 3.86674235 -1 2 C-0.67 1.34 -0.34 0.68 0 0 Z " fill="#0E0C19" transform="translate(70,137)"/>
<path d="M0 0 C2.475 0.99 2.475 0.99 5 2 C4.67 2.99 4.34 3.98 4 5 C2.68 5 1.36 5 0 5 C-0.33 4.01 -0.66 3.02 -1 2 C-0.67 1.34 -0.34 0.68 0 0 Z " fill="#2D2C33" transform="translate(67,134)"/>
<path d="M0 0 C0.99 0.33 1.98 0.66 3 1 C1.37660195 2.70884005 -0.29319053 4.37446717 -2 6 C-2.66 6 -3.32 6 -4 6 C-3.67 4.68 -3.34 3.36 -3 2 C-2.01 2 -1.02 2 0 2 C0 1.34 0 0.68 0 0 Z " fill="#5E24BF" transform="translate(326,134)"/>
<path d="M0 0 C5.53846154 -0.36923077 5.53846154 -0.36923077 7.875 1.5 C8.24625 1.995 8.6175 2.49 9 3 C7.3125 3.75 7.3125 3.75 5 4 C2.25 2.0625 2.25 2.0625 0 0 Z " fill="#3F4046" transform="translate(175,346)"/>
<path d="M0 0 C0.99 0.33 1.98 0.66 3 1 C0.64722731 3.72426311 -1.62496331 4.8141763 -5 6 C-5 5.01 -5 4.02 -5 3 C-3.35 2.34 -1.7 1.68 0 1 C0 0.67 0 0.34 0 0 Z " fill="#9472BB" transform="translate(251,322)"/>
<path d="M0 0 C-5.2734375 3.22265625 -5.2734375 3.22265625 -7 4 C-7.66 3.67 -8.32 3.34 -9 3 C-8.67 2.01 -8.34 1.02 -8 0 C-2.25 -1.125 -2.25 -1.125 0 0 Z " fill="#A283D1" transform="translate(301,297)"/>
<path d="M0 0 C6.625 -0.25 6.625 -0.25 10 2 C10 2.66 10 3.32 10 4 C6.44219804 3.39009109 3.3171411 2.4216319 0 1 C0 0.67 0 0.34 0 0 Z " fill="#07050E" transform="translate(147,278)"/>
<path d="M0 0 C0.33 1.32 0.66 2.64 1 4 C1.99 4 2.98 4 4 4 C3.67 5.32 3.34 6.64 3 8 C1.35 6.35 -0.3 4.7 -2 3 C-1.34 3 -0.68 3 0 3 C0 2.01 0 1.02 0 0 Z " fill="#0B0917" transform="translate(209,173)"/>
<path d="M0 0 C3.37503669 1.1858237 5.64722731 2.27573689 8 5 C5.6875 5.3125 5.6875 5.3125 3 5 C1.1875 2.5 1.1875 2.5 0 0 Z " fill="#8B6EB6" transform="translate(297,84)"/>
<path d="M0 0 C0.33 0.99 0.66 1.98 1 3 C-1.375 3.625 -1.375 3.625 -4 4 C-4.66 3.34 -5.32 2.68 -6 2 C-3 0 -3 0 0 0 Z " fill="#0C0916" transform="translate(195,48)"/>
<path d="M0 0 C3.82097239 0.53069061 6.06171403 1.49701566 9 4 C7.68 4.33 6.36 4.66 5 5 C4.34 3.68 3.68 2.36 3 1 C1.68 1.33 0.36 1.66 -1 2 C-0.67 1.34 -0.34 0.68 0 0 Z " fill="#967DB7" transform="translate(213,34)"/>
<path d="M0 0 C-1.98 1.32 -3.96 2.64 -6 4 C-6.66 3.67 -7.32 3.34 -8 3 C-7.67 2.01 -7.34 1.02 -7 0 C-3.86650268 -1.04449911 -3.01031744 -0.93423645 0 0 Z " fill="#5B5B65" transform="translate(213,332)"/>
<path d="M0 0 C2.31 0 4.62 0 7 0 C2.25 4 2.25 4 0 4 C0 2.68 0 1.36 0 0 Z " fill="#3D3C48" transform="translate(223,321)"/>
<path d="M0 0 C2 3 2 3 2 6 C0.68 6.33 -0.64 6.66 -2 7 C-1.125 2.25 -1.125 2.25 0 0 Z " fill="#0D0C1D" transform="translate(106,295)"/>
<path d="M0 0 C1.875 1.25 1.875 1.25 3.875 3.25 C-0.875 2.375 -0.875 2.375 -3.125 1.25 C-3.455 1.91 -3.785 2.57 -4.125 3.25 C-4.785 2.59 -5.445 1.93 -6.125 1.25 C-2.69883966 -0.95253165 -2.69883966 -0.95253165 0 0 Z " fill="#1B1829" transform="translate(158.125,284.75)"/>
<path d="M0 0 C0.33 0.66 0.66 1.32 1 2 C3.02463255 2.65213292 3.02463255 2.65213292 5 3 C5 3.66 5 4.32 5 5 C2.69 4.67 0.38 4.34 -2 4 C-1.34 2.68 -0.68 1.36 0 0 Z " fill="#040211" transform="translate(123,260)"/>
<path d="M0 0 C2 2 2 2 2 5 C0.68 5.33 -0.64 5.66 -2 6 C-2.33 5.01 -2.66 4.02 -3 3 C-2.01 2.01 -1.02 1.02 0 0 Z " fill="#080615" transform="translate(102,248)"/>
<path d="M0 0 C2.4375 0.375 2.4375 0.375 5 1 C5.33 1.66 5.66 2.32 6 3 C3.69 3 1.38 3 -1 3 C-0.67 2.01 -0.34 1.02 0 0 Z " fill="#0B0818" transform="translate(81,152)"/>
<path d="M0 0 C1.32 0 2.64 0 4 0 C4 0.66 4 1.32 4 2 C5.65 2 7.3 2 9 2 C8.67 2.99 8.34 3.98 8 5 C4.62496331 3.8141763 2.35277269 2.72426311 0 0 Z " fill="#AE8FD6" transform="translate(266,120)"/>
<path d="M0 0 C2.475 0.495 2.475 0.495 5 1 C5 1.66 5 2.32 5 3 C5.66 3 6.32 3 7 3 C7 3.66 7 4.32 7 5 C4.0625 4.1875 4.0625 4.1875 1 3 C0.67 2.01 0.34 1.02 0 0 Z " fill="#5F25C4" transform="translate(291,85)"/>
<path d="M0 0 C5.75 1.625 5.75 1.625 8 5 C4.33776842 4.50510384 2.33006074 3.94323463 0 1 C0 0.67 0 0.34 0 0 Z " fill="#A78BCC" transform="translate(258,60)"/>
<path d="M0 0 C2 1 2 1 3 3 C2.34 3 1.68 3 1 3 C0.67 3.66 0.34 4.32 0 5 C-1.65 4.67 -3.3 4.34 -5 4 C-3.36587557 2.29159719 -2.13093906 1.06546953 0 0 Z " fill="#66656E" transform="translate(188,49)"/>
<path d="M0 0 C1.485 0.99 1.485 0.99 3 2 C2.34 3.98 1.68 5.96 1 8 C0.67 8 0.34 8 0 8 C-0.38063221 5.6739143 -0.71269945 3.33944736 -1 1 C-0.67 0.67 -0.34 0.34 0 0 Z " fill="#572CA9" transform="translate(215,36)"/>
</svg>
